<?xml version="1.0" encoding="UTF-8"?>
<!-- Created with Inkscape (http://www.inkscape.org/) -->
<svg inkscape:version="1.4.4 (1:1.4.4+202605061432+dcaf3e7d9e)" sodipodi:docname="draw_0032.svg" version="1.1" viewBox="0 0 1080 1920" xml:space="preserve" xmlns="http://www.w3.org/2000/svg" xmlns:inkscape="http://www.inkscape.org/namespaces/inkscape" xmlns:sodipodi="http://sodipodi.sourceforge.net/DTD/sodipodi-0.dtd" xmlns:xlink="http://www.w3.org/1999/xlink"><sodipodi:namedview bordercolor="#eeeeee" borderopacity="1" inkscape:current-layer="g292" inkscape:cx="538.29739" inkscape:cy="959.99999" inkscape:deskcolor="#505050" inkscape:pagecheckerboard="0" inkscape:pageopacity="0" inkscape:showpageshadow="0" inkscape:window-height="1027" inkscape:window-maximized="1" inkscape:window-width="1920" inkscape:window-x="0" inkscape:window-y="29" inkscape:zoom="0.45885417" pagecolor="#505050"/><defs><linearGradient id="linearGradient1471"><stop stop-color="#00580a" offset="0"/><stop stop-color="#00580a" stop-opacity="0" offset="1"/></linearGradient><radialGradient id="radialGradient1466" cx="71.346" cy="1456.7" r="42.242" gradientTransform="matrix(3.0861 -.18154 .52197 8.8735 -820.66 -11272)" gradientUnits="userSpaceOnUse"><stop stop-color="#2a482e" offset="0"/><stop stop-color="#00580a" stop-opacity="0" offset="1"/></radialGradient><radialGradient id="radialGradient1467" cx="71.346" cy="1456.7" r="42.242" gradientTransform="matrix(1.5371 -.09042 .25998 4.4197 549.11 -4768.6)" gradientUnits="userSpaceOnUse" xlink:href="#linearGradient1471"/><radialGradient id="radialGradient1468" cx="71.346" cy="1456.7" r="42.242" gradientTransform="matrix(1.5371 -.082325 .25998 4.024 455.32 -4190.8)" gradientUnits="userSpaceOnUse" xlink:href="#linearGradient1471"/><radialGradient id="radialGradient1469" cx="71.346" cy="1456.7" r="42.242" gradientTransform="matrix(1.5371 -.096895 .25998 4.7362 341.02 -5230.8)" gradientUnits="userSpaceOnUse" xlink:href="#linearGradient1471"/><radialGradient id="radialGradient1472" cx="287.56" cy="1343.3" r="50.682" gradientTransform="matrix(2.4751 3.0439 -1.1977 .9223 1186.3 -687.53)" gradientUnits="userSpaceOnUse" xlink:href="#linearGradient1471"/><radialGradient id="radialGradient1473" cx="366.68" cy="1320.4" r="63.305" gradientTransform="matrix(1.2836 3.0329 -1.5858 .63561 2028.3 -542.53)" gradientUnits="userSpaceOnUse" xlink:href="#linearGradient1471"/><radialGradient id="radialGradient1474" cx="719.57" cy="1374.2" r="48.591" gradientTransform="matrix(2.1674 -.19919 .15099 1.5559 -844.91 -522.03)" gradientUnits="userSpaceOnUse" xlink:href="#linearGradient1471"/><linearGradient id="linearGradient1475" x1="451.2" x2="451.2" y1="1167.3" y2="1608.3" gradientTransform="matrix(1.244 0 0 4.5822 -21.293 -5449.4)" gradientUnits="userSpaceOnUse"><stop stop-color="#93d4f5" offset="0"/><stop stop-color="#367fa4" offset=".5"/><stop stop-color="#434d55" offset="1"/></linearGradient><radialGradient id="radialGradient1487" cx="71.346" cy="1456.7" r="42.242" gradientTransform="matrix(2.4195 -.14232 .40922 6.9567 -711.82 -8473.1)" gradientUnits="userSpaceOnUse" xlink:href="#linearGradient1471"/><radialGradient id="radialGradient512" cx="540" cy="187" r="10" gradientUnits="userSpaceOnUse" inkscape:collect="always" spreadMethod="repeat"><stop stop-color="#003056" stop-opacity="0" offset=".5023"/><stop stop-color="#003056" offset=".5023"/><stop stop-color="#003056" offset="1"/></radialGradient></defs><rect width="1080" height="1920" fill="url(#linearGradient1475)" stroke-dashoffset="33" stroke-linecap="round" stroke-linejoin="round" stroke-opacity=".80846" stroke-width="24" style="paint-order:markers fill stroke" inkscape:label="backgraund_01" sodipodi:insensitive="true"/><rect width="1080" height="1920" fill="url(#radialGradient512)" opacity=".2" style="paint-order:markers fill stroke" inkscape:label="background_radial" sodipodi:insensitive="true"/><g transform="matrix(.79371 0 0 .79371 -.0097375 855.78)" display="none" fill="#001520" fill-opacity=".54293" inkscape:label="people" sodipodi:insensitive="true"><path d="m963.5 1112.5c-9.9885 8.8361-10.757 28.429-1.9209 20.362 8.8361-8.0676 13.446-25.356 1.9209-20.362z" stroke-width="1.2599" style="paint-order:markers fill stroke"/><path d="m963.5 1137.1c-25.356 10.757-34.576 7.2994-26.893 30.734s37.65 63.39 43.796 24.972c6.1466-38.418-8.0675-60.316-16.904-55.704z" stroke-width="1.2599" style="paint-order:markers fill stroke"/><path d="m958.5 1176.3c-16.52 26.124-17.288 59.547-3.4576 44.949 13.83-14.599 14.215-36.113 9.2204-41.876-4.9942-5.7628-5.7628-3.0734-5.7628-3.0734z" stroke-width="1.2599" style="paint-order:markers fill stroke"/><path d="m958.5 1208.2c-11.526 11.141-24.203 43.028-25.356 55.704-1.1526 12.678 30.35 66.077 31.887 65.696 1.5368-0.3843-11.526-37.265-11.526-43.796s-3.0734-39.571 11.141-30.734c14.215 8.8361 26.124 70.307 26.124 70.307s8.8361-47.255 6.5309-55.322c-2.3051-8.0675-5.7628-7.6837-5.7628-20.362 0-12.678-2.3051-36.881-6.1466-43.028-3.8415-6.1471-17.288-8.8361-26.893 1.5367z" stroke-width="1.2599" style="paint-order:markers fill stroke"/><path d="m955.06 1305c-0.38428 14.983 2.3051 18.825-7.6837 25.356-9.9885 6.5308-3.4576 7.6837 1.9209 8.8361 5.3785 1.1525 5.3785 3.8417 12.294-3.8419 6.9152-7.6837 11.141-34.96-6.5309-30.35z" stroke-width="1.2599" style="paint-order:markers fill stroke"/><path d="m990.05 1301.9c2.6892 8.4518 4.9942 11.909 7.2994 18.825 2.3051 6.9151 17.288 7.2994 0.38428 9.2204-16.904 1.9208-20.362-3.8419-7.6837-28.045z" stroke-width="1.2599" style="paint-order:markers fill stroke"/><path d="m938.93 1149.4c-8.0675 9.2203-17.288 49.174-11.141 44.18 6.1466-4.9943 26.124-48.405 11.141-44.18z" stroke-width="1.2599" style="paint-order:markers fill stroke"/><path d="m970.05 1137.5c-3.0734 8.4518 25.356 34.576 26.893 27.661 1.5366-6.9152-17.672-34.576-26.893-27.661z" stroke-width="1.2599" style="paint-order:markers fill stroke"/><path d="m925.5 1193.6c-2.6893 15.751-1.9209 38.034 1.5367 33.04 3.4576-4.9942 14.983-36.497-1.5367-33.04z" stroke-width="1.2599" style="paint-order:markers fill stroke"/><path d="m996.18 1162.1c-8.8361 7.2994-4.6102 11.909 4.226 22.666 8.8361 10.757 16.52 13.83 13.446 6.1471-3.0734-7.6837-18.056-34.96-18.825-31.502-0.76838 3.4575 1.1525 2.6892 1.1525 2.6892z" stroke-width="1.2599" style="paint-order:markers fill stroke"/><path d="m925.5 1225.5c-5.7628 5.3785-9.6047 13.062-9.9885 16.52-0.38428 3.4577 4.226-1.9209 5.3785-3.8417 1.1525-1.9209 0 4.6101-1.5368 7.2994-1.5367 2.6893 6.9152-3.4576 8.4518-7.6837s3.0734 3.0734 5.3785 6.1466c2.3051 3.0734 2.6893-1.5367 0.38428-6.9152-2.3051-5.3785-4.6102-5.3785 0.38428-7.2994 4.9942-1.9209 6.9152-7.2995 2.3051-6.9152s-10.757 2.6893-10.757 2.6893z" stroke-width="1.2599" style="paint-order:markers fill stroke"/><path d="m1011.9 1192.8c-2.6892 4.6102-4.9942 14.599-1.5367 16.904 3.4576 2.3051 6.1466 3.8418 11.141-1.9209 4.9943-5.7628-1.9209-18.056-9.6046-14.983z" stroke-width="1.2599" style="paint-order:markers fill stroke"/><path d="m959.3 1124.5c-7.2994 18.441-17.288 31.119-4.6101 27.277 12.678-3.8418 25.356-2.6892 19.977-14.215-5.3785-11.526-7.6837-13.83-15.367-13.062z" stroke-width="1.2599" style="paint-order:markers fill stroke"/><path d="m951.99 1260.4c0.76838-8.4518 7.2994-58.01 16.52-39.186 9.2204 18.824 12.678 33.039 11.526 39.955-1.1525 6.9151-21.514-36.497-28.045-0.7684z" stroke-width="1.2599" style="paint-order:markers fill stroke"/><path d="m961.19 1138.3c-6.5309 13.446-6.1466 13.83-1.5367 30.734s2.3051 31.502 2.3051 34.576c0 3.0735 3.4576-34.576 1.5367-39.186-1.9209-4.6102-6.9152-6.147-3.0734-15.751 3.8418-9.6047 7.6837-12.294 0.76837-10.373z" stroke-width="1.2599" style="paint-order:markers fill stroke"/><path d="m954.68 1119.5c2.6893-22.282 8.4518-50.329 7.6837-38.034-0.76837 12.294-2.3051 38.802 0.38428 21.514 2.6893-17.288 6.5309-44.565 4.9942-22.666-1.5367 21.898-6.9152 47.255 1.1526 24.203 8.0675-23.051 16.136-46.486 9.9885-23.051s-15.751 48.405-5.3785 30.35c10.373-18.056 36.497-49.56 21.514-27.277-14.983 22.284-19.209 35.344-23.819 37.65s-3.0734-11.141-16.52-2.6893z" stroke-width="1.2599" style="paint-order:markers fill stroke"/><path d="m947 1203.6c3.4576-5.7628 41.875-9.6047 40.339-5.7628-1.5367 3.8418-40.339 5.7628-40.339 5.7628z" stroke-width="1.2599" style="paint-order:markers fill stroke"/><path d="m950.44 1207.4c7.2994-2.6893 43.796-7.6838 42.644-2.6893-1.1526 4.9942-45.717 0.3843-45.717 0.3843z" stroke-width="1.2599" style="paint-order:markers fill stroke"/><path d="m951.24 1215.1c-0.76838-5.3785 46.87-12.294 46.486-6.9152-0.38429 5.3785-45.333 13.446-46.486 6.9152z" stroke-width="1.2599" style="paint-order:markers fill stroke"/><path d="m944.69 1209.3c-0.76838-3.8418 42.26-23.051 42.644-20.362 0.38428 2.6893-38.418 27.277-42.644 20.362z" stroke-width="1.2599" style="paint-order:markers fill stroke"/><path d="m945.87 1193.6c-1.9209 4.9942 49.174 20.362 49.174 14.215 0-6.1466-43.412-18.441-49.174-14.215z" stroke-width="1.2599" style="paint-order:markers fill stroke"/><path d="m943.55 1210.9c-1.5367-4.9942 56.473-13.446 55.704-9.9885-0.76838 3.4576-55.704 16.52-58.397 8.8361-2.6892-7.6837 2.6893 1.1525 2.6893 1.1525z" stroke-width="1.2599" style="paint-order:markers fill stroke"/><path d="m969.3 1190.9c-16.904 8.4518-17.672 32.271-3.0734 27.661 14.599-4.6104 14.983-31.887 3.0734-27.661z" stroke-width="1.2599" style="paint-order:markers fill stroke"/><path d="m754.9 1108c-4.0902-0.2922-13.439-2.0451-13.439 6.1351 0 8.1803 1.8573 24.145-5.843 30.091-12.618 9.7439-9.4824 22.326-1.7529 30.091 5.4997 5.5249 32.031 13.289 39.733 13.147 6.1895-0.1141 15.484-19.866 18.698-20.158 3.2135-0.2921 10.844-7.5301-13.147-36.52-14.023-16.945-24.248-22.788-24.248-22.788z" stroke-dashoffset="33" stroke-linecap="round" stroke-linejoin="round" stroke-opacity=".80846" stroke-width="30.238" style="paint-order:markers fill stroke"/><path d="m750.84 1112.6c-7.4337 0.8362-7.2854 24.221 2.2928 20.659 9.5783-3.562 5.5257-21.539-2.2928-20.659z" stroke-dashoffset="33" stroke-linecap="round" stroke-linejoin="round" stroke-opacity=".80846" stroke-width="30.238" style="paint-order:markers fill stroke"/><path d="m752.75 1138.4c-23.01 4.9965-11.922 28.814-1.9871 36.762 9.9354 7.9483 30.118-42.869 1.9871-36.762z" stroke-dashoffset="33" stroke-linecap="round" stroke-linejoin="round" stroke-opacity=".80846" stroke-width="30.238" style="paint-order:markers fill stroke"/><path d="m740.29 1187.8c-5.2587 6.1352 0.29214 20.45 7.3037 21.911 7.0116 1.4607 21.838-12.511 21.911-15.776 0.2128-9.4661-27.251-10.007-29.214-6.1352z" stroke-dashoffset="33" stroke-linecap="round" stroke-linejoin="round" stroke-opacity=".80846" stroke-width="30.238" style="paint-order:markers fill stroke"/><path d="m736.78 1197.1c-2.7402 2.2423-4.3823 46.745 0.87644 62.229 5.2588 15.484 0.29214 12.855-2.3372 15.776-6.2039 6.8932-1.321 18.684 1.4608 25.126 4.6745 10.81 1.4607 25.418 2.3372 30.091 0.87645 4.6737 3.5057 9.9332 3.5057 9.9332s4.0902-55.8 4.9666-58.43c0.87647-2.6292 3.0264-12 4.0902-20.45 1.4108-11.207 10.463-81.792-14.9-64.273z" stroke-dashoffset="33" stroke-linecap="round" stroke-linejoin="round" stroke-opacity=".80846" stroke-width="30.238" style="paint-order:markers fill stroke"/><path d="m758.41 1198.9c-2.9214 2.9214-2.9214 66.903-2.9214 70.407 0 3.506 1.7529 7.0116 2.045 8.1802 0.29214 1.1686-2.9214 10.81-2.3372 16.945 0.58431 6.1351 3.5059 11.978 3.2135 17.529-0.29214 5.5509-4.0902 28.047-4.0902 28.047s9.6411-29.8 11.978-37.395c2.3372-7.5959 4.6745-14.607 3.798-18.698-0.87644-4.0902-4.6745-13.439-5.2587-15.192-0.5843-1.7529 1.7069-1.0456 5.7815-17.706 4.0099-16.396 7.8059-43.826 2.3988-50.074-5.6243-6.4992-6.7194-8.4723-14.607-2.045z" stroke-dashoffset="33" stroke-linecap="round" stroke-linejoin="round" stroke-opacity=".80846" stroke-width="30.238" style="paint-order:markers fill stroke"/><path d="m742.61 1146.6c-8.9446 5.1673-9.933 21.327-0.87642 16.36 9.0566-4.9666 10.797-22.092 0.87642-16.36z" stroke-dashoffset="33" stroke-linecap="round" stroke-linejoin="round" stroke-opacity=".80846" stroke-width="30.238" style="paint-order:markers fill stroke"/><path d="m762.19 1141.6c-8.1675 2.0744-7.0116 14.9 1.1686 15.192 8.1801 0.2922 9.8746-17.996-1.1686-15.192z" stroke-dashoffset="33" stroke-linecap="round" stroke-linejoin="round" stroke-opacity=".80846" stroke-width="30.238" style="paint-order:markers fill stroke"/><path d="m740.59 1143c-5.2588 6.1352-19.592 36.337-16.361 36.812 5.9056 0.8639 22.477-36.925 16.361-36.812z" stroke-dashoffset="33" stroke-linecap="round" stroke-linejoin="round" stroke-opacity=".80846" stroke-width="30.238" style="paint-order:markers fill stroke"/><path d="m725.61 1177.5c-7.0116-2.9213-7.8848 34.938-7.8848 34.938s17.048-34.671 7.8848-34.938z" stroke-dashoffset="33" stroke-linecap="round" stroke-linejoin="round" stroke-opacity=".80846" stroke-width="30.238" style="paint-order:markers fill stroke"/><path d="m765.4 1139.3c-0.29214 3.2135 12.27 37.103 16.361 35.351 4.0902-1.7529-8.7644-37.395-16.361-35.351z" stroke-dashoffset="33" stroke-linecap="round" stroke-linejoin="round" stroke-opacity=".80846" stroke-width="30.238" style="paint-order:markers fill stroke"/><path d="m783.81 1175.8c-10.225 3.2136 5.5697 30.608 5.5697 31.774 0 1.1686 3.195-34.696-5.5697-31.774z" stroke-dashoffset="33" stroke-linecap="round" stroke-linejoin="round" stroke-opacity=".80846" stroke-width="30.238" style="paint-order:markers fill stroke"/><path d="m719.26 1208.2c-3.2135 3.506-5.843 5.5509-4.3823 11.102 1.4607 5.5509 3.798 6.1352 4.9666 5.843 1.1686-0.2921-2.3372-4.3823-2.045-7.3037 0.29216-2.9214 0.87647-7.0116 2.045-2.3372 1.1686 4.6745 3.5059 6.4273 3.2135 2.3372-0.29214-4.0902-3.7978-9.6411-3.7978-9.6411z" stroke-dashoffset="33" stroke-linecap="round" stroke-linejoin="round" stroke-opacity=".80846" stroke-width="30.238" style="paint-order:markers fill stroke"/><path d="m790.07 1205.4c-1.8315-0.7927-3.9286 3.9658-3.0521 6.303 0.87647 2.3372 2.3366 2.9841 5.0472 2.6542 7.9906-0.973 5.1273-5.8747-1.9952-8.9572z" stroke-dashoffset="33" stroke-linecap="round" stroke-linejoin="round" stroke-opacity=".80846" stroke-width="30.238" style="paint-order:markers fill stroke"/><path d="m752.55 1163.2c-6.1216 0.1646-15.486 28.067-0.87644 28.922 12.836 0.7526 12.783-29.244 0.87644-28.922z" stroke-dashoffset="33" stroke-linecap="round" stroke-linejoin="round" stroke-opacity=".80846" stroke-width="30.238" style="paint-order:markers fill stroke"/><path d="m742.61 1313.4c-4.6745 2.9213-3.2135 17.237-4.3823 20.45s-4.1475 6.6253-4.1475 6.6253l12.036 0.094s-2.5514-9.5887-1.9671-12.51 2.5514-14.952-1.5387-14.66z" stroke-dashoffset="33" stroke-linecap="round" stroke-linejoin="round" stroke-opacity=".80846" stroke-width="30.238" style="paint-order:markers fill stroke"/><path d="m760.73 1316.9c-2.045 0-5.0968 5.8225-4.2204 9.9124 0.87644 4.0902 1.9457 9.9228 5.4515 11.676 3.5057 1.7529 7.5128 0.532 7.5128 0.532s-5.8225-7.2207-6.4068-10.142c-0.5843-2.9214-0.0798-11.983-2.3372-11.978z" stroke-dashoffset="33" stroke-linecap="round" stroke-linejoin="round" stroke-opacity=".80846" stroke-width="30.238" style="paint-order:markers fill stroke"/><path d="m747.58 1126.4s1.7529 18.113 2.9214 18.113 4.9666 1.7529 5.843-2.6293c0.87642-4.3821 1.1686-23.956-8.7644-15.484z" stroke-dashoffset="33" stroke-linecap="round" stroke-linejoin="round" stroke-opacity=".80846" stroke-width="30.238" style="paint-order:markers fill stroke"/><path d="m790.27 1213.3c-0.36769 0.4045 2.102 11.61 2.5801 11.243 0.47805-0.3677-0.85185-12.419-2.5801-11.243z" stroke-dashoffset="33" stroke-linecap="round" stroke-linejoin="round" stroke-opacity=".80846" stroke-width="30.238" style="paint-order:markers fill stroke"/><path d="m792.14 1214.7c-0.0724 0.7846 2.2062 10.086 2.6475 10.282 0.44122 0.1965 1.0663-0.3602 1.0663-0.3602s0.29417 1.277 0.66186 1.0806c0.3677-0.1965-0.62416-11.05-0.956-11.494-1.3298-1.7778-3.2546-1.2951-3.4196 0.4912z" stroke-dashoffset="33" stroke-linecap="round" stroke-linejoin="round" stroke-opacity=".80846" stroke-width="30.238" style="paint-order:markers fill stroke"/><path d="m795.78 1212.7c0 1.349 1.9694 1.5978 1.2502 3.2724-0.18907 0.4404-0.62088 2.6982-0.43704 3.213 0.18388 0.5148 1.5401-2.4041 1.7607-3.066 0.22071-0.6618-0.62509-2.9782-0.99278-3.5667s-1.5811-1.6009-1.5811 0.1471z" stroke-dashoffset="33" stroke-linecap="round" stroke-linejoin="round" stroke-opacity=".80846" stroke-width="30.238" style="paint-order:markers fill stroke"/><path d="m785.92 1211.4c-0.26018 0.8701-0.68823 3.7044-0.87209 4.3294-0.18388 0.6251-0.62508 0.9561 0.22071 1.8753 0.84569 0.9192 1.0373 2.1234 1.6914 1.8752 0.91532-0.3472-0.69676-2.3157-0.99278-2.9782-0.24419-0.5465 1.0663-2.2797 1.434-2.7209 0.3677-0.4413 0.91925-2.7944 0.51478-3.2724-1.0588-0.1767-1.7057-0.079-1.996 0.8917z" stroke-dashoffset="33" stroke-linecap="round" stroke-linejoin="round" stroke-opacity=".80846" stroke-width="30.238" style="paint-order:markers fill stroke"/><path d="m64.566 1109.9c-9.3499 8.5371-12.602 19.919-2.4391 15.854 10.163-4.0651 10.976-16.667 2.4391-15.854z" stroke-dashoffset="33" stroke-linecap="round" stroke-linejoin="round" stroke-opacity=".80846" stroke-width="30.238" style="paint-order:markers fill stroke"/><path d="m62.503 1131.4c-10.976 3.6587-41.058 18.7-17.074 55.694 23.985 36.993 40.652 41.872 50.408 29.676 9.7565-12.195 19.106-24.798 16.261-38.213-2.8456-13.415-36.587-60.977-49.595-47.156z" stroke-dashoffset="33" stroke-linecap="round" stroke-linejoin="round" stroke-opacity=".80846" stroke-width="30.238" style="paint-order:markers fill stroke"/><path d="m76.348 1191.2c-26.017-2.4391-33.741 10.163-41.058 36.993-7.3171 26.83-13.415 34.148-2.4391 45.936 10.976 11.789 30.896 43.904 30.896 43.904s-7.7238-26.83-1.6261-36.993 8.5371-9.7565 21.546-21.139c13.009-11.383 22.765 31.708 21.546 34.554-1.2196 2.8456-10.163 21.139-10.163 21.139s36.993-15.041 31.708-39.432c-5.2847-24.391-13.821-49.189-22.765-63.415-8.9438-14.226-24.797-20.326-27.643-21.546z" stroke-dashoffset="33" stroke-linecap="round" stroke-linejoin="round" stroke-opacity=".80846" stroke-width="30.238" style="paint-order:markers fill stroke"/><path d="m47.464 1145.7c-7.7238-3.6587-25.611 1.2195-29.27 12.195-3.6587 10.976-6.911 18.294-1.6261 22.765 5.2849 4.4716 41.058-30.082 33.335-34.961-7.7238-4.8782-2.4391 0-2.4391 0z" stroke-dashoffset="33" stroke-linecap="round" stroke-linejoin="round" stroke-opacity=".80846" stroke-width="30.238" style="paint-order:markers fill stroke"/><path d="m94.644 1135.5c-15.854 3.2522-42.684-6.0977-17.887 10.976 24.798 17.074 47.563 27.644 45.937 13.415s-28.05-24.391-28.05-24.391z" stroke-dashoffset="33" stroke-linecap="round" stroke-linejoin="round" stroke-opacity=".80846" stroke-width="30.238" style="paint-order:markers fill stroke"/><path d="m17.819 1173.3c-14.635-0.813-8.5371 33.741-6.0977 39.432 2.4391 5.691 26.83-19.513 6.0977-39.432z" stroke-dashoffset="33" stroke-linecap="round" stroke-linejoin="round" stroke-opacity=".80846" stroke-width="30.238" style="paint-order:markers fill stroke"/><path d="m118.64 1155.8c-2.8456 23.578 12.919 48.428 17.074 47.563 3.543-0.7377 5.2848-69.11-17.074-47.563z" stroke-dashoffset="33" stroke-linecap="round" stroke-linejoin="round" stroke-opacity=".80846" stroke-width="30.238" style="paint-order:markers fill stroke"/><path d="m66.195 1322.1c-7.3171 2.0326-13.009 9.3499-13.009 9.3499s4.0652-4.4717 1.2196 0-2.0326 3.2521-5.691 6.5043-1.626 3.2522 4.4717-0.4066 4.4717-0.8131 11.789-6.9111c7.3176-6.0979 10.569-3.6586 1.2196-8.537z" stroke-dashoffset="33" stroke-linecap="round" stroke-linejoin="round" stroke-opacity=".80846" stroke-width="30.238" style="paint-order:markers fill stroke"/><path d="m99.911 1318.9c-10.976 10.569-12.195 13.415-8.5371 14.635s6.911 4.0652 10.163 1.6261c3.2521-2.4392 0.40666-14.228 5.691-13.415 5.2848 0.8131-7.3171-2.8456-7.3171-2.8456z" stroke-dashoffset="33" stroke-linecap="round" stroke-linejoin="round" stroke-opacity=".80846" stroke-width="30.238" style="paint-order:markers fill stroke"/><path d="m64.566 1119.2c-7.3171 8.5371-14.228 17.074-6.5043 18.294 7.7238 1.2196 13.009-15.042 6.5043-18.294z" stroke-dashoffset="33" stroke-linecap="round" stroke-linejoin="round" stroke-opacity=".80846" stroke-width="30.238" style="paint-order:markers fill stroke"/><path d="m10.87 1213.5c-6.5043 5.691-17.074 4.0652-6.0977 12.195 10.976 8.1302 13.415 11.383 18.294 4.8782 4.8783-6.5043 0.81304-23.171-12.195-17.074z" stroke-dashoffset="33" stroke-linecap="round" stroke-linejoin="round" stroke-opacity=".80846" stroke-width="30.238" style="paint-order:markers fill stroke"/><path d="m130.8 1201.4c-10.163 0-11.383 3.2522-12.195 5.2847-0.81299 2.0327-1.626-4.4717-0.40666 4.4718 1.2195 8.9432 13.821 18.294 20.326 10.976 6.5044-7.3171-3.2521-19.513-7.7238-20.732z" stroke-dashoffset="33" stroke-linecap="round" stroke-linejoin="round" stroke-opacity=".80846" stroke-width="30.238" style="paint-order:markers fill stroke"/><path d="m69.832 1201.7c-17.074 1.2196-35.774-11.383-21.139 9.7566 14.635 21.139 31.708 39.839 41.872 23.171 10.163-16.667 2.0326-38.213-20.732-32.928z" stroke-dashoffset="33" stroke-linecap="round" stroke-linejoin="round" stroke-opacity=".80846" stroke-width="30.238" style="paint-order:markers fill stroke"/><path d="m186.51 1117.9c-11.789 3.6587-12.602 23.171-5.2848 20.326 7.3173-2.8456 21.139-23.578 5.2848-20.326z" stroke-dashoffset="33" stroke-linecap="round" stroke-linejoin="round" stroke-opacity=".80846" stroke-width="30.238" style="paint-order:markers fill stroke"/><path d="m178.8 1143.5c-7.7238 6.911-19.919 23.578-4.8782 28.456 15.041 4.8782 24.391 10.163 35.367-1.6262 10.976-11.789-6.5044-37.806-30.489-26.83z" stroke-dashoffset="33" stroke-linecap="round" stroke-linejoin="round" stroke-opacity=".80846" stroke-width="30.238" style="paint-order:markers fill stroke"/><path d="m173.48 1193.1c-12.195 11.383-27.643 34.961-5.2848 43.091 22.359 8.1305 32.257 38.979 41.465 3.2522 10.163-39.432 34.332 9.9612 15.041-27.237-7.2183-13.919-39.42-25.461-51.221-19.106z" stroke-dashoffset="33" stroke-linecap="round" stroke-linejoin="round" stroke-opacity=".80846" stroke-width="30.238" style="paint-order:markers fill stroke"/><path d="m172.28 1203.3c-3.0646 3.0646 1.0455 15.269-3.0409 21.992-8.6609 14.249-6.5478 38.521-4.2765 48.742 3.2521 14.635 8.5371 30.896 10.163 34.961 1.626 4.0652 4.0652 30.082 4.0652 30.082s7.9469-29.701 8.5371-36.587c1.2195-14.228-7.5028-15.961-6.0977-24.391 1.626-9.7565-2.439-26.369 8.9432-46.343 0.23618 12.83 2.6085 34.894 1.6261 47.563-0.5925 7.6412 3.6587 13.009 9.3499 20.326 14.851 19.095 13.821 36.18 13.821 36.18s4.8782-38.619-0.81304-47.156c-5.6913-8.5365-8.1304-10.569-6.911-18.294 1.2195-7.7238 7.7238-45.53 5.691-55.287-2.0326-9.7565-21.952-19.919-41.058-11.789z" stroke-dashoffset="33" stroke-linecap="round" stroke-linejoin="round" stroke-opacity=".80846" stroke-width="30.238" style="paint-order:markers fill stroke"/><path d="m191.4 1161.4c-12.195 4.4718-9.3499 23.171-12.195 41.465-1.7372 11.168 4.4717 16.261 14.635 12.195 10.163-4.0652 18.7-60.977-2.4391-53.66z" stroke-dashoffset="33" stroke-linecap="round" stroke-linejoin="round" stroke-opacity=".80846" stroke-width="30.238" style="paint-order:markers fill stroke"/><path d="m180.81 1320.4c-2.8456 1.6261-3.2522 12.195-8.1304 14.635-4.8783 2.4394-7.7238 5.691-7.7238 5.691l19.106-1.2195s6.5044-21.952-3.2522-19.106z" stroke-dashoffset="33" stroke-linecap="round" stroke-linejoin="round" stroke-opacity=".80846" stroke-width="30.238" style="paint-order:markers fill stroke"/><path d="m208.06 1317.9c1.2195 5.2848 3.2522 15.042-2.0326 17.887-5.2848 2.8455-3.2522 2.0326-3.2522 2.0326l17.48 0.4066s2.0326-9.7565 0-13.822c-2.0326-4.0652-8.5371-17.48-12.195-6.5043z" stroke-dashoffset="33" stroke-linecap="round" stroke-linejoin="round" stroke-opacity=".80846" stroke-width="30.238" style="paint-order:markers fill stroke"/><path d="m198.29 1143.1c-4.8782 7.3171 15.041 37.806 21.546 32.522 6.5044-5.2847-15.041-37.806-21.546-32.522z" stroke-dashoffset="33" stroke-linecap="round" stroke-linejoin="round" stroke-opacity=".80846" stroke-width="30.238" style="paint-order:markers fill stroke"/><path d="m218.65 1169.5c-9.3499-2.0326-9.3499 32.115-11.789 34.961-2.4391 2.8456 27.237-25.611 11.789-34.961z" stroke-dashoffset="33" stroke-linecap="round" stroke-linejoin="round" stroke-opacity=".80846" stroke-width="30.238" style="paint-order:markers fill stroke"/><path d="m176.36 1178.9c-9.7565-5.691-27.237 17.074-27.237 17.074s44.717-5.2848 27.237-17.074z" stroke-dashoffset="33" stroke-linecap="round" stroke-linejoin="round" stroke-opacity=".80846" stroke-width="30.238" style="paint-order:markers fill stroke"/><path d="m147.09 1197.6c-6.0977 3.6587-5.2848 4.0652-9.3499 8.5371-4.0652 4.4718-5.691 7.3172-3.2521 8.1305s10.976-7.3171 13.415-6.911c2.4391 0.4066 6.911-8.9432-0.81304-9.7566z" stroke-dashoffset="33" stroke-linecap="round" stroke-linejoin="round" stroke-opacity=".80846" stroke-width="30.238" style="paint-order:markers fill stroke"/><path d="m209.69 1204.1c-6.0977 4.8782-8.5371 6.5043-3.2522 13.415 5.2848 6.911 10.163 9.7565 12.602 8.1304 2.4391-1.626-2.0326-22.765-9.3499-21.546z" stroke-dashoffset="33" stroke-linecap="round" stroke-linejoin="round" stroke-opacity=".80846" stroke-width="30.238" style="paint-order:markers fill stroke"/><path d="m182.87 1122.8c-2.0326-2.0325-5.2848-9.7565 3.6587-11.383s15.448-0.4066 19.513 5.6911c4.0652 6.0977 4.0652 14.635 2.4391 23.578-1.626 8.9432-19.106 17.887-19.919 11.789-0.81299-6.0977 0.40666-30.896-5.691-29.676z" stroke-dashoffset="33" stroke-linecap="round" stroke-linejoin="round" stroke-opacity=".80846" stroke-width="30.238" style="paint-order:markers fill stroke"/><path d="m272.94 1198.3c-13.209 9.5555-28.706-10.025-30.762 1.251-0.98694 5.4121-8.7967 17.804-0.43331 44.919 25.788 83.606 23.293 88.594 22.877 90.261-0.41609 1.6638 20.381-11.646 28.284-10.399 7.9028 1.2478 19.965 16.222 19.965 16.222s-15.39-163.88-39.931-142.25z" stroke-dashoffset="33" stroke-linecap="round" stroke-linejoin="round" stroke-opacity=".80846" stroke-width="30.237" style="paint-order:markers fill stroke"/><path d="m259.22 1165.8c-14.142 28.7-27.452 46.585-8.735 52.409 18.718 5.823 27.452 16.638 33.691-1.6638s-12.478-58.23-24.957-50.745z" stroke-dashoffset="33" stroke-linecap="round" stroke-linejoin="round" stroke-opacity=".80846" stroke-width="30.237" style="paint-order:markers fill stroke"/><path d="m267.94 1109.7c-12.063 4.1594-39.515 7.4867-23.293 37.019s22.877 60.729 35.355 37.435c12.478-23.295 6.6551-76.951-12.063-74.456z" stroke-dashoffset="33" stroke-linecap="round" stroke-linejoin="round" stroke-opacity=".80846" stroke-width="30.237" style="paint-order:markers fill stroke"/><path d="m250.06 1126.3c-14.974 2.4956-20.797 2.9116-22.045 19.549s-8.735 19.549 6.239 32.027 49.081 28.7 51.577 21.629c2.4957-7.0712 1.6638-28.284-2.9116-29.948-4.5754-1.6637-36.603 8.735-32.443-9.1505 4.1594-17.886-0.41608-34.107-0.41608-34.107z" stroke-dashoffset="33" stroke-linecap="round" stroke-linejoin="round" stroke-opacity=".80846" stroke-width="30.237" style="paint-order:markers fill stroke"/><path d="m280 1113.8c22.877 23.708 36.603 44.09 35.771 54.489-0.83189 10.399 2.0797 31.196-8.3189 27.868-10.399-3.3275-32.86-64.057-32.443-68.212 0.41608-4.1595 4.9913-14.142 4.9913-14.142z" stroke-dashoffset="33" stroke-linecap="round" stroke-linejoin="round" stroke-opacity=".80846" stroke-width="30.237" style="paint-order:markers fill stroke"/><path d="m283.33 1179.2c-1.6638 8.3189-0.41608 14.974 4.5754 13.726 4.9913-1.2478 8.3189-3.3275 7.0712-8.735-1.2478-5.4072-8.3189-6.239-11.646-4.9913z" stroke-dashoffset="33" stroke-linecap="round" stroke-linejoin="round" stroke-opacity=".80846" stroke-width="30.237" style="paint-order:markers fill stroke"/><path d="m300.39 1178.3c-9.1505 7.4867-14.142 12.062-5.4073 13.726 8.735 1.6637 22.045-2.4957 5.4073-13.726z" stroke-dashoffset="33" stroke-linecap="round" stroke-linejoin="round" stroke-opacity=".80846" stroke-width="30.237" style="paint-order:markers fill stroke"/><path d="m266.28 1340.5s-6.6551-14.558 5.4073-12.063c12.063 2.4957 14.142 12.063 14.142 12.063z" stroke-dashoffset="33" stroke-linecap="round" stroke-linejoin="round" stroke-opacity=".80846" stroke-width="30.237" style="paint-order:markers fill stroke"/><path d="m302.05 1340.5s-2.4957-19.133 5.4073-16.222c7.9028 2.9116 0-3.7435 8.3189 4.1594 8.3189 7.9028 13.31 12.062 13.31 12.062z" stroke-dashoffset="33" stroke-linecap="round" stroke-linejoin="round" stroke-opacity=".80846" stroke-width="30.237" style="paint-order:markers fill stroke"/><path d="m259.22 1096.4c-7.0712 1.6637-9.9827 20.381-7.4867 24.125 2.4956 3.7434 7.9028 9.9827 12.478 5.4072s7.4867-31.196-4.9913-29.532z" stroke-dashoffset="33" stroke-linecap="round" stroke-linejoin="round" stroke-opacity=".80846" stroke-width="30.237" style="paint-order:markers fill stroke"/><path d="m339.4 1135.9c6.0874 0 6.4492-11.707 8.5544-14.985 2.5771-39.058-29.392 14.985-8.5544 14.985z" stroke-dashoffset="33" stroke-linecap="round" stroke-linejoin="round" stroke-opacity=".80846" stroke-width="30.237" style="paint-order:markers fill stroke"/><path d="m342.96 1099.3c-13.872 2.3689-2.2826 41.868 3.85 42.145 11.3 0.5106 18.569-45.974-3.85-42.145z" stroke-dashoffset="33" stroke-linecap="round" stroke-linejoin="round" stroke-opacity=".80846" stroke-width="30.237" style="paint-order:markers fill stroke"/><path d="m371.26 1109.7c-11.584-0.5631-68.932 2.8097-53.642 5.151 15.287 2.3415 72.538-4.2323 53.642-5.151z" stroke-dashoffset="33" stroke-linecap="round" stroke-linejoin="round" stroke-opacity=".80846" stroke-width="30.237" style="paint-order:markers fill stroke"/><path d="m342.26 1134c-8.3158 8.8975-16.831 27.629-11.601 35.589 5.2295 7.961 24.384 15.454 29.195 3.7463 4.8111-11.707-4.0516-46.828-17.594-39.336z" stroke-dashoffset="33" stroke-linecap="round" stroke-linejoin="round" stroke-opacity=".80846" stroke-width="30.237" style="paint-order:markers fill stroke"/><path d="m331.87 1201.9c-3.1748 5.1511-4.2367 20.136-0.55664 21.073 3.6799 0.9366 37.061-0.9365 36.755-9.834-0.30632-8.8974-6.836-22.477-9.9816-24.351-3.1452-1.8732-19.296 7.961-26.216 13.112z" stroke-dashoffset="33" stroke-linecap="round" stroke-linejoin="round" stroke-opacity=".80846" stroke-width="30.237" style="paint-order:markers fill stroke"/><path d="m326.97 1224.8c1.1431 10.302 5.9877 19.649 7.9021 32.293 1.9137 12.643 7.4306 39.021 10.384 56.816 0.8146 4.9078-7.1838 26.557-7.1838 26.557h19.767s-9.6496-18.974-6.2426-27.403c3.4071-8.4289 8.9978-39.849 10.742-52.969 2.7473-20.662 10.087-25.466 7.5374-40.757-3.6271-21.751-12.421-39.02-27.008-33.873-1.8771 0.262-15.22 19.013-15.9 39.336z" stroke-dashoffset="33" stroke-linecap="round" stroke-linejoin="round" stroke-opacity=".80846" stroke-width="30.237" style="paint-order:markers fill stroke"/><path d="m346.58 1166.3c-12.168 13.112-16.703 37.463-4.7935 41.209 11.91 3.7463 16.231-44.018 4.7935-41.209z" stroke-dashoffset="33" stroke-linecap="round" stroke-linejoin="round" stroke-opacity=".80846" stroke-width="30.237" style="paint-order:markers fill stroke"/><path d="m339.17 1139.2c-8.5287 1.4048-24.472 36.284-18.381 42.84 6.0915 6.556 21.593-41.903 18.381-42.84z" stroke-dashoffset="33" stroke-linecap="round" stroke-linejoin="round" stroke-opacity=".80846" stroke-width="30.237" style="paint-order:markers fill stroke"/><path d="m352.94 1136.3c-3.5766 4.2145 9.6169 49.627 16.036 44.944 6.4194-4.683-4.9673-49.158-16.036-44.944z" stroke-dashoffset="33" stroke-linecap="round" stroke-linejoin="round" stroke-opacity=".80846" stroke-width="30.237" style="paint-order:markers fill stroke"/><path d="m320.85 1172.8c-10.298 6.5559 4.5686 34.653 4.5686 34.653s4.9298-36.526-4.5686-34.653z" stroke-dashoffset="33" stroke-linecap="round" stroke-linejoin="round" stroke-opacity=".80846" stroke-width="30.237" style="paint-order:markers fill stroke"/><path d="m364.08 1170c-7.7912 4.2146 6.511 37.219 6.511 37.219s7.0654-43.775-6.511-37.219z" stroke-dashoffset="33" stroke-linecap="round" stroke-linejoin="round" stroke-opacity=".80846" stroke-width="30.237" style="paint-order:markers fill stroke"/><path d="m325.63 1204.2c-4.045 4.2145-5.6821 7.4924-5.5788 12.643 0.10327 5.1511 3.0493 9.834 3.0493 9.834 2.7985 1.5991 8.5538-21.539 2.5295-22.477z" stroke-dashoffset="33" stroke-linecap="round" stroke-linejoin="round" stroke-opacity=".80846" stroke-width="30.237" style="paint-order:markers fill stroke"/><path d="m368.63 1205.9c-4.0789 3.8085 3.4162 19.575 4.4948 18.271 0.97418-1.1777 2.9046-7.9937 2.2336-11.039-0.67112-3.0452-1.8121-9.163-6.7281-7.2322z" stroke-dashoffset="33" stroke-linecap="round" stroke-linejoin="round" stroke-opacity=".80846" stroke-width="30.237" style="paint-order:markers fill stroke"/><path d="m324.76 1278.2 46.845-0.095c1.9221 0 3.0018-70.881-7.8752-81.932-4.318-4.3884-19.334-19.033-26.885-4.9845-7.5514 14.048-8.5322 25.19-8.5322 25.19z" stroke-dashoffset="33" stroke-linecap="round" stroke-linejoin="round" stroke-opacity=".80846" stroke-width="30.237" style="paint-order:markers fill stroke"/><path d="m348.15 1311.1c-4.4546 0.01-8.2656 25.716-14.775 29.426h30.235c-8.2924-5.0594-13.023-29.431-15.461-29.426z" stroke-dashoffset="33" stroke-linecap="round" stroke-linejoin="round" stroke-opacity=".80846" stroke-width="30.237" style="paint-order:markers fill stroke"/><path d="m336.6 1148.5c-2.9461-4.6827-10.173-8.4289-3.7868-12.643 6.3862-4.2145 31.534-15.454 32.478-2.3414s-17.481 22.01-28.691 14.985z" stroke-dashoffset="33" stroke-linecap="round" stroke-linejoin="round" stroke-opacity=".80846" stroke-width="30.237" style="paint-order:markers fill stroke"/><path d="m409.83 1111.1c-6.4019 5.9445-2.7436 26.065 2.7436 23.778 5.4872-2.2864 8.688-30.637-2.7436-23.778z" stroke-dashoffset="33" stroke-linecap="round" stroke-linejoin="round" stroke-opacity=".80846" stroke-width="30.237" style="paint-order:markers fill stroke"/><path d="m406.15 1142.6c-12.804 13.261-42.526 34.295-9.1455 36.582 33.381 2.2866 54.415 16.462 47.557-7.7738-6.8594-24.235-26.979-47.099-38.411-28.808z" stroke-dashoffset="33" stroke-linecap="round" stroke-linejoin="round" stroke-opacity=".80846" stroke-width="30.237" style="paint-order:markers fill stroke"/><path d="m409.36 1170.5c5.9649-15.509 18.293-54.238-3.6582 0-9.5282 23.544-23.778 37.954 0.45745 42.069 24.235 4.1154 32.009 14.176 35.21-0.9145 3.2009-15.09-18.291-53.501-32.009-41.155z" stroke-dashoffset="33" stroke-linecap="round" stroke-linejoin="round" stroke-opacity=".80846" stroke-width="30.237" style="paint-order:markers fill stroke"/><path d="m414.38 1189.7c-26.065 19.205-36.582 20.577-23.778 52.586s13.261 27.894 8.688 37.496c-4.5727 9.6024-4.5727 10.517-4.5727 15.09s1.3718-5.9445 5.03 16.462c3.6582 22.406 12.804 29.266 12.804 29.266s2.7436-31.552 3.6581-35.21-0.10678-21.309 0-26.522c0.10678-5.2181 4.0968-50.141 0-49.843-7.1383 0.5205 5.4873 0.9146 8.2312 18.748 2.7436 17.834 0 29.722-0.45745 34.295-0.45744 4.5727 7.7737 55.787 7.7737 55.787s12.804-48.013 10.517-52.586c-2.2867-4.5728-1.3718 1.8291 3.2009-25.607 4.5727-27.436-0.45745-91.91-28.351-70.875-27.894 21.034-2.7436 0.9145-2.7436 0.9145z" stroke-dashoffset="33" stroke-linecap="round" stroke-linejoin="round" stroke-opacity=".80846" stroke-width="30.237" style="paint-order:markers fill stroke"/><path d="m400.2 1138.9c-5.4873 12.346-21.034 58.99-15.09 62.648s22.406-66.762 15.09-62.648z" stroke-dashoffset="33" stroke-linecap="round" stroke-linejoin="round" stroke-opacity=".80846" stroke-width="30.237" style="paint-order:markers fill stroke"/><path d="m429.49 1135.7c-4.5727 15.547 11.889 64.475 19.205 64.936 7.3163 0.4575-8.2312-66.762-19.205-64.936z" stroke-dashoffset="33" stroke-linecap="round" stroke-linejoin="round" stroke-opacity=".80846" stroke-width="30.237" style="paint-order:markers fill stroke"/><path d="m412.57 1125.2c-10.06 6.8594-33.381 7.7737-14.633 17.377 18.748 9.6029 36.124 15.09 37.039 2.7436 0.9149-12.346-19.205-22.406-22.406-20.12z" stroke-dashoffset="33" stroke-linecap="round" stroke-linejoin="round" stroke-opacity=".80846" stroke-width="30.237" style="paint-order:markers fill stroke"/><path d="m408.43 1118.8c-1.8291-3.6581-1.3718-12.346 2.7436-12.804 4.1154-0.4574 13.261-0.4574 13.718 3.6582 0.45744 4.1155-10.517 12.346-16.462 9.1455z" stroke-dashoffset="33" stroke-linecap="round" stroke-linejoin="round" stroke-opacity=".80846" stroke-width="30.237" style="paint-order:markers fill stroke"/><path d="m383.28 1202c-5.03 8.688-7.7737 11.432-6.4019 21.492s4.5727 16.005 4.1155 8.688c-0.45745-7.3163 2.2864-30.18 2.2864-30.18z" stroke-dashoffset="33" stroke-linecap="round" stroke-linejoin="round" stroke-opacity=".80846" stroke-width="30.237" style="paint-order:markers fill stroke"/><path d="m450.96 1200.2c7.7737 5.9445 14.633 13.261 9.1455 17.376-5.4873 4.1155-9.1455-17.376-9.1455-17.376z" stroke-dashoffset="33" stroke-linecap="round" stroke-linejoin="round" stroke-opacity=".80846" stroke-width="30.237" style="paint-order:markers fill stroke"/><path d="m410.29 1320.5c0 9.1455-2.7436 17.377-6.4019 19.205-3.6583 1.8287 10.975 0.9146 10.975 0.9146z" stroke-dashoffset="33" stroke-linecap="round" stroke-linejoin="round" stroke-opacity=".80846" stroke-width="30.237" style="paint-order:markers fill stroke"/><path d="m431.77 1319.6c-1.8291 11.889-2.7436 13.261-3.2009 16.462-0.45745 3.2009 5.03 1.3718 6.8594 1.8291 1.8291 0.4574-1.8291-16.462-3.6582-18.291z" stroke-dashoffset="33" stroke-linecap="round" stroke-linejoin="round" stroke-opacity=".80846" stroke-width="30.237" style="paint-order:markers fill stroke"/><path d="m469.69 1111.6c-6.4019 9.1454-2.7436 29.722 5.03 17.833 7.7737-11.889 1.8291-17.833-5.03-17.833z" stroke-dashoffset="33" stroke-linecap="round" stroke-linejoin="round" stroke-opacity=".80846" stroke-width="30.237" style="paint-order:markers fill stroke"/><path d="m474.3 1137.2c-7.7737 10.975-9.1455 21.949-0.91455 28.808 8.2312 6.8588 8.4517 16.325 14.633 5.9445 6.9866-11.733 2.1046-45.363-13.718-34.753z" stroke-dashoffset="33" stroke-linecap="round" stroke-linejoin="round" stroke-opacity=".80846" stroke-width="30.237" style="paint-order:markers fill stroke"/><path d="m470.16 1188.9c-3.6582 11.889-9.6029 21.492 2.2864 22.864 11.889 1.3718 22.864 15.09 24.693-0.9145 1.8291-16.005-23.321-22.406-26.979-21.949z" stroke-dashoffset="33" stroke-linecap="round" stroke-linejoin="round" stroke-opacity=".80846" stroke-width="30.237" style="paint-order:markers fill stroke"/><path d="m469.28 1208.1c-2.7436 12.346-4.5727 51.672-2.2864 62.648 2.2864 10.975-1.3718 5.9445 0 16.919 1.3718 10.975 7.3162 37.039 7.3162 42.526 0 5.4871 2.2864 13.718 1.8291 9.1455-0.45744-4.5727 9.1455-79.563 7.7737-89.167s-1.8291-21.949-3.6582-30.18c-1.8291-8.2305-2.7436-19.205-10.975-11.889z" stroke-dashoffset="33" stroke-linecap="round" stroke-linejoin="round" stroke-opacity=".80846" stroke-width="30.237" style="paint-order:markers fill stroke"/><path d="m484.34 1203.9c-6.402 9.6029-7.7737 17.377 0.45744 36.124 8.2312 18.748 15.743 26.939 12.346 34.295-4.4832 9.7079-7.276 60.151-6.4019 59.9 0 0-0.62106 19.349 15.09-41.612 2.5518-9.9017 9.1455-13.718 4.1156-25.15-5.03-11.432-19.205-69.504-25.607-63.558z" stroke-dashoffset="33" stroke-linecap="round" stroke-linejoin="round" stroke-opacity=".80846" stroke-width="30.237" style="paint-order:markers fill stroke"/><path d="m482.06 1162.8c-9.6029 14.176-17.377 26.522-11.432 34.753 5.9451 8.2312 9.6029 16.462 13.718 2.7437 4.1153-13.718 0.91455-39.325-2.2864-37.496z" stroke-dashoffset="33" stroke-linecap="round" stroke-linejoin="round" stroke-opacity=".80846" stroke-width="30.237" style="paint-order:markers fill stroke"/><path d="m472.03 1141.3c-9.1455 7.7737-22.864 19.205-16.919 21.492 5.9445 2.2867 21.034-14.176 16.919-21.492z" stroke-dashoffset="33" stroke-linecap="round" stroke-linejoin="round" stroke-opacity=".80846" stroke-width="30.237" style="paint-order:markers fill stroke"/><path d="m456.91 1162.8c13.261 20.577 18.291 25.15 17.833 17.834-0.45745-7.3163-11.889-20.577-17.833-17.834z" stroke-dashoffset="33" stroke-linecap="round" stroke-linejoin="round" stroke-opacity=".80846" stroke-width="30.237" style="paint-order:markers fill stroke"/><path d="m473.37 1122.6c1.8291 17.377 5.03 34.296 6.8594 23.321s-4.5727-24.693-6.8594-23.321z" stroke-dashoffset="33" stroke-linecap="round" stroke-linejoin="round" stroke-opacity=".80846" stroke-width="30.237" style="paint-order:markers fill stroke"/><path d="m474.3 1118.5c-5.9445-6.8594-15.547-11.889-2.7436-11.432 12.804 0.4574 16.308-10.505 16.919 4.5727 1.4124 34.864-13.743 12.91-14.176 6.8594z" stroke-dashoffset="33" stroke-linecap="round" stroke-linejoin="round" stroke-opacity=".80846" stroke-width="30.237" style="paint-order:markers fill stroke"/><path d="m475.18 1196.2c-6.8594 14.632-19.205 38.411-4.5727 43.441 14.633 5.03 30.637 4.1155 31.552-8.2311s-10.06-69.504-15.547-70.875c-5.4876-1.3712-11.432 35.667-11.432 35.667z" stroke-dashoffset="33" stroke-linecap="round" stroke-linejoin="round" stroke-opacity=".80846" stroke-width="30.237" style="paint-order:markers fill stroke"/><path d="m485.74 1137.7c-1.3718 2.2864 1.3718 38.411 5.03 38.411s6.8594 0 6.8594-5.9445-6.8594-35.667-11.889-32.467z" stroke-dashoffset="33" stroke-linecap="round" stroke-linejoin="round" stroke-opacity=".80846" stroke-width="30.237" style="paint-order:markers fill stroke"/><path d="m494.84 1170.6c-1.3718 5.03 7.3162 14.176 10.975 17.377s-5.4873-19.205-10.975-17.377z" stroke-dashoffset="33" stroke-linecap="round" stroke-linejoin="round" stroke-opacity=".80846" stroke-width="30.237" style="paint-order:markers fill stroke"/><path d="m508.14 1191.6c1.3718 5.4873 1.8291 8.688 0 12.346-1.8291 3.6585 3.2008 6.402 4.1154 0.4575s-4.1154-12.804-4.1154-12.804z" stroke-dashoffset="33" stroke-linecap="round" stroke-linejoin="round" stroke-opacity=".80846" stroke-width="30.237" style="paint-order:markers fill stroke"/><path d="m475.64 1320.1-3.2009 17.834s6.4019 2.2864 9.1455 0.4574c2.7436-1.8291-5.9445-18.291-5.9445-18.291z" stroke-dashoffset="33" stroke-linecap="round" stroke-linejoin="round" stroke-opacity=".80846" stroke-width="30.237" style="paint-order:markers fill stroke"/><path d="m498.05 1314.2c-2.7436 7.3163-7.7737 20.12-9.6029 21.949-1.8292 1.8292 17.833 2.7434 24.235 1.8291 6.4019-0.9146-16.919-6.8594-16.005-12.346 0.91431-5.487 1.3718-11.432 1.3718-11.432z" stroke-dashoffset="33" stroke-linecap="round" stroke-linejoin="round" stroke-opacity=".80846" stroke-width="30.237" style="paint-order:markers fill stroke"/><path d="m537.38 1098.7c-6.8594 14.176-10.494 27.923-0.45745 20.12 12.146-9.4418 22.872-27.9 0.45745-20.12z" stroke-dashoffset="33" stroke-linecap="round" stroke-linejoin="round" stroke-opacity=".80846" stroke-width="30.237" style="paint-order:markers fill stroke"/><path d="m542.45 1119.3c-8.2312 4.1154-17.833 1.3718-16.005 12.346 1.8291 10.975 16.462 11.889 25.15 0.4575 8.688-11.432 14.176-24.693-9.1455-12.804z" stroke-dashoffset="33" stroke-linecap="round" stroke-linejoin="round" stroke-opacity=".80846" stroke-width="30.237" style="paint-order:markers fill stroke"/><path d="m537.38 1132.1c2.2864 18.291-1.3718 26.979 10.06 25.15 11.432-1.8291 8.688-31.095 1.3718-30.637-7.3163 0.4575-11.432 5.4873-11.432 5.4873z" stroke-dashoffset="33" stroke-linecap="round" stroke-linejoin="round" stroke-opacity=".80846" stroke-width="30.237" style="paint-order:markers fill stroke"/><path d="m552.49 1160c-9.1455 6.4019-24.235-2.7436-16.005 13.261 8.2312 16.005 16.462 21.492 20.577 8.2312 4.1154-13.261-4.5727-21.492-4.5727-21.492z" stroke-dashoffset="33" stroke-linecap="round" stroke-linejoin="round" stroke-opacity=".80846" stroke-width="30.237" style="paint-order:markers fill stroke"/><path d="m547.47 1146.7c-1.8291 24.693-0.45745 33.838 5.03 23.321 5.4873-10.517 0-27.894-5.03-23.321z" stroke-dashoffset="33" stroke-linecap="round" stroke-linejoin="round" stroke-opacity=".80846" stroke-width="30.237" style="paint-order:markers fill stroke"/><path d="m544.73 1178.7c-8.2312 9.6029-9.1455 53.958-8.688 61.277 0.45745 7.3162-3.6582 31.095-2.7436 37.954s8.2312 54.873 5.9445 57.616c-2.2866 2.7435-3.6582 0.9146-7.7737 4.1155s21.949-1.8291 21.949-1.8291 6.1265-16.493 1.3718-26.979c-7.7206-17.027-8.9675-49.839 1.3718-57.616 9.9408-7.4779 10.517 26.522 11.889 30.637s5.03 37.496 4.1155 44.812c-0.91455 7.3163-4.1156 10.975 4.5727 9.1455 8.688-1.8291 8.9132-12.749 6.4019-32.467-1.7342-13.616-0.91454-18.291-5.03-37.954s-4.1155-37.954-9.6029-50.3c-5.4873-12.346-7.3162-51.672-23.778-38.411z" stroke-dashoffset="33" stroke-linecap="round" stroke-linejoin="round" stroke-opacity=".80846" stroke-width="30.237" style="paint-order:markers fill stroke"/><path d="m530.08 1126.6c-7.7737 14.176-7.3163 50.758-2.7436 48.013 4.5726-2.7441 6.4019-48.013 2.7436-48.013z" stroke-dashoffset="33" stroke-linecap="round" stroke-linejoin="round" stroke-opacity=".80846" stroke-width="30.237" style="paint-order:markers fill stroke"/><path d="m527.81 1172.3c-7.7737 5.9445-17.377 10.517-11.889 15.09 5.4876 4.5727 19.205-8.2312 11.889-15.09z" stroke-dashoffset="33" stroke-linecap="round" stroke-linejoin="round" stroke-opacity=".80846" stroke-width="30.237" style="paint-order:markers fill stroke"/><path d="m516.37 1190.2c-1.3718 10.517-2.7436 10.975 2.2864 13.261s9.6029 3.6581 5.4873-2.2864c-4.1156-5.9446-3.2009-7.3163-3.2009-10.06s-4.5727-0.9145-4.5727-0.9145z" stroke-dashoffset="33" stroke-linecap="round" stroke-linejoin="round" stroke-opacity=".80846" stroke-width="30.237" style="paint-order:markers fill stroke"/><path d="m558.44 1118.4c2.2863 22.406 0.45744 36.124 6.4019 33.381 5.9445-2.7437 4.1155-35.21-6.4019-33.381z" stroke-dashoffset="33" stroke-linecap="round" stroke-linejoin="round" stroke-opacity=".80846" stroke-width="30.237" style="paint-order:markers fill stroke"/><path d="m565.73 1149c-5.4873 8.688-3.2009 16.919 1.3718 22.406 4.5727 5.4873 7.3162-24.235-1.3718-22.406z" stroke-dashoffset="33" stroke-linecap="round" stroke-linejoin="round" stroke-opacity=".80846" stroke-width="30.237" style="paint-order:markers fill stroke"/><path d="m566.67 1176c-3.6582 6.402-9.1455 11.432-1.3718 12.346 7.7737 0.9145 11.889-13.261 1.3718-12.346z" stroke-dashoffset="33" stroke-linecap="round" stroke-linejoin="round" stroke-opacity=".80846" stroke-width="30.237" style="paint-order:markers fill stroke"/><path d="m554.3 1116.5c-9.6029 5.03-19.205 38.868-20.577 73.624-1.3718 34.756-19.663 57.616-6.8594 56.702 12.803-0.9143 27.436 4.1155 30.637-10.06 3.2008-14.176 19.663-125.75-3.2009-120.26z" stroke-dashoffset="33" stroke-linecap="round" stroke-linejoin="round" stroke-opacity=".80846" stroke-width="30.237" style="paint-order:markers fill stroke"/><path d="m538.78 1107.8c-10.003 6.1236-6.8314-2.0601-10.517 20.12-5.0274 30.254 3.2009 54.873 13.718 45.27 10.517-9.6029 12.346-70.875-3.2009-65.391z" stroke-dashoffset="33" stroke-linecap="round" stroke-linejoin="round" stroke-opacity=".80846" stroke-width="30.237" style="paint-order:markers fill stroke"/><path d="m605.9 1097.6c-9.3759 3.2816-18.752 15.939-9.8449 18.752 8.907 2.8126 11.72 6.0943 15.939-0.469 4.2192-6.5633 2.8128-20.627-6.0943-18.283z" stroke-dashoffset="33" stroke-linecap="round" stroke-linejoin="round" stroke-opacity=".80846" stroke-width="30.237" style="paint-order:markers fill stroke"/><path d="m605.43 1113.1c-10.782 4.6879-19.221 27.659-19.221 34.222 0 6.5632 23.44 35.159 31.878 17.346 8.4386-17.814 2.344-58.599-12.658-51.568z" stroke-dashoffset="33" stroke-linecap="round" stroke-linejoin="round" stroke-opacity=".80846" stroke-width="30.237" style="paint-order:markers fill stroke"/><path d="m608.72 1145.4c-23.44 7.5006-49.692 61.882-6.0943 58.131 43.598-3.7504 39.847-72.661 6.0943-58.131z" stroke-dashoffset="33" stroke-linecap="round" stroke-linejoin="round" stroke-opacity=".80846" stroke-width="30.237" style="paint-order:markers fill stroke"/><path d="m594.18 1122.4c-8.4386 3.2816-10.782 56.725-4.688 52.974 6.0943-3.7506 12.658-55.787 4.688-52.974z" stroke-dashoffset="33" stroke-linecap="round" stroke-linejoin="round" stroke-opacity=".80846" stroke-width="30.237" style="paint-order:markers fill stroke"/><path d="m621.88 1114c-9.3759 6.5633 4.2192 52.974 11.72 49.692 7.5004-3.2817-4.2192-48.755-11.72-49.692z" stroke-dashoffset="33" stroke-linecap="round" stroke-linejoin="round" stroke-opacity=".80846" stroke-width="30.237" style="paint-order:markers fill stroke"/><path d="m604.05 1182c-9.3759 3.2816-14.064 3.2816-14.064 13.595 0 10.313 10.313 18.283 21.565 15.47 11.251-2.8128 23.909-3.7504 24.846-10.313 0.93735-6.5629-26.721-21.564-32.347-18.752z" stroke-dashoffset="33" stroke-linecap="round" stroke-linejoin="round" stroke-opacity=".80846" stroke-width="30.237" style="paint-order:markers fill stroke"/><path d="m596.51 1198.4c-5.6256 8.9069 3.8422 47.131 1.154 60.853-1.0028 5.1195-1.6202 9.9986 1.3679 11.706 0 0 2.166 1.9766 2.166 9.4777 0 7.501 6.0943 33.753 6.0943 37.504 0 3.7503-0.93759 13.595-0.93759 13.595l-5.6256 4.2192-1.8752 4.6879s4.2192-3.7503 11.72-2.8127c7.5006 0.9376 10.313 2.344 10.313-1.4064s-0.46897-4.2192-1.8752-7.5006c-1.4064-3.2816-3.0406-30.355-1.1653-35.511 1.8752-5.1568 1.4064-5.6256 3.7504 0 2.344 5.6255 5.3844 27.073 6.7906 33.168s2.344 7.0322 2.344 9.8449c0 2.8126-5.1568 4.6879 1.8752 2.8128 7.032-1.8752 8.4386-2.8128 8.4386-4.688s0.46898-3.7504-1.4064-12.189c-1.8752-8.438-3.7504-39.379-3.2816-46.88 0.46897-7.5006 2.5836-10.187-1.1652-11.593-3.7504-1.4063-3.5228-3.4079-1.6476-6.2205 1.8752-2.8127 0.93759 0.9376 0-16.876-0.93759-17.814 6.0943-33.753 1.4064-40.785-4.6879-7.0322-23.44-31.878-38.441-1.4064z" stroke-dashoffset="33" stroke-linecap="round" stroke-linejoin="round" stroke-opacity=".80846" stroke-width="30.237" style="paint-order:markers fill stroke"/><path d="m634.02 1156.6c-0.9376 11.72 19.689 30.94 19.689 30.94s0.9376-45.473-19.689-30.94z" stroke-dashoffset="33" stroke-linecap="round" stroke-linejoin="round" stroke-opacity=".80846" stroke-width="30.237" style="paint-order:markers fill stroke"/><path d="m589.51 1174.4c-11.251-3.7504-16.408 39.847-16.408 39.847s30.94-30.94 19.689-38.441c-11.251-7.5006-3.2816-1.4063-3.2816-1.4063z" stroke-dashoffset="33" stroke-linecap="round" stroke-linejoin="round" stroke-opacity=".80846" stroke-width="30.237" style="paint-order:markers fill stroke"/><path d="m612.01 1105.1c-8.438 7.0323-34.691 20.627-18.752 26.722 15.939 6.0943 44.067 8.4385 45.004-4.688 0.9376-13.126-22.502-19.221-26.252-22.034z" stroke-dashoffset="33" stroke-linecap="round" stroke-linejoin="round" stroke-opacity=".80846" stroke-width="30.237" style="paint-order:markers fill stroke"/><path d="m606.38 1191.3c-7.0322 5.1568-17.346 40.316-9.3759 42.661 7.9696 2.3442 22.971-48.286 9.3759-42.661z" stroke-dashoffset="33" stroke-linecap="round" stroke-linejoin="round" stroke-opacity=".80846" stroke-width="30.237" style="paint-order:markers fill stroke"/><path d="m575.46 1208.2c-3.2816 7.9696-4.688 18.283 2.8128 15.939 7.5008-2.3437 7.9696-19.689-2.8128-15.939z" stroke-dashoffset="33" stroke-linecap="round" stroke-linejoin="round" stroke-opacity=".80846" stroke-width="30.237" style="paint-order:markers fill stroke"/><path d="m651.84 1181c-4.2192 5.1568-5.1568 7.9696-2.8128 12.189s10.782 4.688 13.127 0.469c2.344-4.2192-10.313-12.658-10.313-12.658z" stroke-dashoffset="33" stroke-linecap="round" stroke-linejoin="round" stroke-opacity=".80846" stroke-width="30.237" style="paint-order:markers fill stroke"/><path d="m612.48 1321.7c-1.4064 1.8752-16.877 15.939-12.658 17.814s2.344-3.2815 7.9696-2.344c5.6255 0.9376 8.907-0.4689 10.782-0.4689 1.8753 0-6.0943-15.001-6.0943-15.001z" stroke-dashoffset="33" stroke-linecap="round" stroke-linejoin="round" stroke-opacity=".80846" stroke-width="30.237" style="paint-order:markers fill stroke"/><path d="m636.83 1320.2c-1.8752 3.7504 0 6.5633-4.688 10.782-4.688 4.219-8.907 7.0323-6.0943 7.0323s9.3759-0.9376 14.064-1.8752c4.688-0.9376 8.4386 0.469 8.4386-1.8752 0-2.344-11.72-14.064-11.72-14.064z" stroke-dashoffset="33" stroke-linecap="round" stroke-linejoin="round" stroke-opacity=".80846" stroke-width="30.237" style="paint-order:markers fill stroke"/><path d="m599.8 1100.4c0-1.8752 2.344-11.251 8.907-10.313 6.5633 0.9376 11.72 2.8128 8.907 8.4386s-0.46898 12.189-2.8128 12.189c-2.344 0-15.001-10.313-15.001-10.313z" stroke-dashoffset="33" stroke-linecap="round" stroke-linejoin="round" stroke-opacity=".80846" stroke-width="30.237" style="paint-order:markers fill stroke"/><path d="m619.48 1172.6c-9.8449 13.127-16.877 15.001-7.0322 23.44 9.8449 8.4385 14.064 15.47 19.221 10.313 5.1569-5.157 7.9696-41.723-12.189-33.753z" stroke-dashoffset="33" stroke-linecap="round" stroke-linejoin="round" stroke-opacity=".80846" stroke-width="30.237" style="paint-order:markers fill stroke"/><path d="m690.13 1105.5c-7.7737 4.1155-15.09 16.005-9.6029 16.919 5.487 0.9143 15.547 2.2863 16.462-1.3718 0.91431-3.6582 3.2009-18.748-6.8594-15.547z" stroke-dashoffset="33" stroke-linecap="round" stroke-linejoin="round" stroke-opacity=".80846" stroke-width="30.237" style="paint-order:markers fill stroke"/><path d="m691.06 1119.2c-13.718 14.176-29.722-3.6582-20.12 21.949 9.6029 25.607 13.261 53.958 26.979 34.753s16.462-36.124 12.346-42.984c-4.1155-6.8588-19.205-13.718-19.205-13.718z" stroke-dashoffset="33" stroke-linecap="round" stroke-linejoin="round" stroke-opacity=".80846" stroke-width="30.237" style="paint-order:markers fill stroke"/><path d="m675.95 1143c-5.03 6.8594-17.377 17.377-6.8594 41.155 10.517 23.778 6.8594 41.612 26.522 24.235s29.266-67.678-19.663-65.391z" stroke-dashoffset="33" stroke-linecap="round" stroke-linejoin="round" stroke-opacity=".80846" stroke-width="30.237" style="paint-order:markers fill stroke"/><path d="m688.73 1199.7c-17.377-1.3718-29.722-9.1454-19.205 6.8594 10.517 16.005 8.2312 21.034 23.321 18.748 15.09-2.2864 17.376 5.4872 18.291-8.2312 0.91455-13.718-22.406-17.377-22.406-17.377z" stroke-dashoffset="33" stroke-linecap="round" stroke-linejoin="round" stroke-opacity=".80846" stroke-width="30.237" style="paint-order:markers fill stroke"/><path d="m675.02 1188.3c-4.5135 10.06-13.218 12.804-10.317 37.496 2.9015 24.693 8.6536 34.409 5.885 41.702-2.1142 5.5694-3.9958 5.0845-4.2732 17.744-0.55139 25.152-0.79505 45.7-0.64481 53.044 0.11086 5.4268 5.1605-1.2917 3.8687 0-1.9535 1.9534 12.656-60.361 13.3-66.307 0.64475-5.9445-0.0823-26.065 1.8521-37.496 1.9344-11.432-0.0887-22.406 1.2007-10.975 1.2896 11.432 12.932 116.15 12.932 116.15h5.0233s2.4442-28.808 3.4114-48.013c0.96718-19.205 0.6448-31.552-0.32267-52.586-0.96717-21.034-9.3497-78.192-31.917-50.758z" stroke-dashoffset="33" stroke-linecap="round" stroke-linejoin="round" stroke-opacity=".80846" stroke-width="30.237" style="paint-order:markers fill stroke"/><path d="m668.19 1128.8c-5.9445 7.3163-15.547 48.471-9.1455 48.928 6.4019 0.4575 20.577-53.958 9.1455-48.928z" stroke-dashoffset="33" stroke-linecap="round" stroke-linejoin="round" stroke-opacity=".80846" stroke-width="30.237" style="paint-order:markers fill stroke"/><path d="m656.76 1169.9c3.6582 12.804 0.91454 6.8593 6.4019 17.376 5.4873 10.517 8.2312 14.176 9.6029 9.6029s-10.517-32.467-16.005-26.979z" stroke-dashoffset="33" stroke-linecap="round" stroke-linejoin="round" stroke-opacity=".80846" stroke-width="30.237" style="paint-order:markers fill stroke"/><path d="m712.07 1132.9c6.4019 5.03 19.663 16.462 16.462 21.949-3.201 5.4877-24.235-8.688-16.462-21.949z" stroke-dashoffset="33" stroke-linecap="round" stroke-linejoin="round" stroke-opacity=".80846" stroke-width="30.237" style="paint-order:markers fill stroke"/><path d="m724.85 1154.9c-5.9445 0.4574-24.235 15.547-23.321 20.12 0.91455 4.5727 4.1154 8.2306 7.3163 5.03 3.2009-3.2009 21.949-19.205 16.005-25.15z" stroke-dashoffset="33" stroke-linecap="round" stroke-linejoin="round" stroke-opacity=".80846" stroke-width="30.237" style="paint-order:markers fill stroke"/><path d="m699.29 1123.3c2.7436-1.8291-16.005 10.975-17.833 4.5727-1.8291-6.4019-5.03-17.377 6.4019-15.09 11.432 2.2866 25.607 8.688 23.778 13.261-1.8291 4.5727-12.346-2.7436-12.346-2.7436z" stroke-dashoffset="33" stroke-linecap="round" stroke-linejoin="round" stroke-opacity=".80846" stroke-width="30.237" style="paint-order:markers fill stroke"/><path d="m705.65 1121.5c-8.2306 5.03-47.099 82.312-41.155 94.658 5.9445 12.346 9.1455 11.432 15.547-3.2009 6.402-14.633 45.727-96.029 25.607-91.455z" stroke-dashoffset="33" stroke-linecap="round" stroke-linejoin="round" stroke-opacity=".80846" stroke-width="30.237" style="paint-order:markers fill stroke"/><path d="m687.86 1119.2c-8.688 2.2864-17.833 12.804-6.4019 13.261 11.432 0.4575 16.462-8.688 6.4019-13.261z" stroke-dashoffset="33" stroke-linecap="round" stroke-linejoin="round" stroke-opacity=".80846" stroke-width="30.237" style="paint-order:markers fill stroke"/><path d="m830.28 1108.9c-12.781 3.7106-9.4827 21.439-2.0614 20.614 7.4213-0.8246 11.132-21.851 2.0614-20.614z" stroke-dashoffset="33" stroke-linecap="round" stroke-linejoin="round" stroke-opacity=".80846" stroke-width="30.237" style="paint-order:markers fill stroke"/><path d="m826.2 1134c-5.3597 3.7106-16.903 19.789-12.781 30.921 4.1228 11.132 24.737 16.491 26.386 5.3596 1.6491-11.132-0.82457-42.465-13.606-36.281z" stroke-dashoffset="33" stroke-linecap="round" stroke-linejoin="round" stroke-opacity=".80846" stroke-width="30.237" style="paint-order:markers fill stroke"/><path d="m825.32 1136.5c-4.9474 1.2369-16.903 11.544-15.254 16.904 1.6492 5.3596 34.219 8.2457 35.456 3.7105s-8.6577-23.912-20.202-20.614z" stroke-dashoffset="33" stroke-linecap="round" stroke-linejoin="round" stroke-opacity=".80846" stroke-width="30.237" style="paint-order:markers fill stroke"/><path d="m825.73 1178.6c-13.193 2.886-17.316 34.632-9.4827 44.938 7.8332 10.307 17.728 6.1843 21.851-3.7105 4.1228-9.8947 7.8332-45.351-12.369-41.228z" stroke-dashoffset="33" stroke-linecap="round" stroke-linejoin="round" stroke-opacity=".80846" stroke-width="30.237" style="paint-order:markers fill stroke"/><path d="m815.05 1206.2c-5.3596 6.1843-10.719 37.93-7.8332 57.72 2.886 19.789-0.82458 30.921-1.6489 37.93-0.82457 7.0088 3.7105 12.369 3.2982 24.737-0.41252 12.369 2.0614 14.018 2.0614 14.018s11.544-40.404 10.307-47c-1.2369-6.5963-0.82481-23.912 1.2369-30.921 2.0614-7.0087 4.7084-34.26 4.123-30.096-0.43644 3.1043 7.72 40.46 9.0702 43.702 1.593 3.825-4.9474 11.544-4.5351 16.492 0.41252 4.9473 10.848 44.23 9.0702 45.351-3.2683 2.0614 4.7816-45.351 7.4213-49.061 2.1508-3.0236 0.24973-7.5252 1.6492-13.605 1.9568-8.5019-5.6999-73.238-9.8946-71.739-1.6003 0.5735-15.666-11.956-24.325 2.4737z" stroke-dashoffset="33" stroke-linecap="round" stroke-linejoin="round" stroke-opacity=".80846" stroke-width="30.237" style="paint-order:markers fill stroke"/><path d="m825.73 1160.4c-16.491 4.9474-17.728 44.527-9.8946 50.711s17.728 11.132 21.439 3.2982 8.2457-64.317-11.544-54.009z" stroke-dashoffset="33" stroke-linecap="round" stroke-linejoin="round" stroke-opacity=".80846" stroke-width="30.237" style="paint-order:markers fill stroke"/><path d="m828.24 1124.1c-6.1843 7.0087-17.316 11.956-7.0088 15.666 10.307 3.7106 9.4827-14.842 7.0088-15.666z" stroke-dashoffset="33" stroke-linecap="round" stroke-linejoin="round" stroke-opacity=".80846" stroke-width="30.237" style="paint-order:markers fill stroke"/><path d="m829.47 1123.7c-5.3597 6.1843-31.517 24.108-2.886 24.737 20.983 0.4609 11.132-25.149 2.886-24.737z" stroke-dashoffset="33" stroke-linecap="round" stroke-linejoin="round" stroke-opacity=".80846" stroke-width="30.237" style="paint-order:markers fill stroke"/><path d="m814.65 1139.8c-4.9473-1.2368-18.552 31.746-16.491 34.219 2.0614 2.4738 24.325-28.448 16.491-34.219z" stroke-dashoffset="33" stroke-linecap="round" stroke-linejoin="round" stroke-opacity=".80846" stroke-width="30.237" style="paint-order:markers fill stroke"/><path d="m837.69 1136.9c-2.4737 5.7719 5.3597 39.991 8.6577 39.991 3.2983 0 1.6491-42.877-8.6577-39.991z" stroke-dashoffset="33" stroke-linecap="round" stroke-linejoin="round" stroke-opacity=".80846" stroke-width="30.237" style="paint-order:markers fill stroke"/><path d="m798.13 1171.6c-8.2457 6.1843 10.307 36.693 10.307 36.693s1.2369-41.641-10.307-36.693z" stroke-dashoffset="33" stroke-linecap="round" stroke-linejoin="round" stroke-opacity=".80846" stroke-width="30.237" style="paint-order:markers fill stroke"/><path d="m845.98 1173.2c8.6577-4.1228 12.781 32.57 12.781 32.57s-21.439-24.325-12.781-32.57z" stroke-dashoffset="33" stroke-linecap="round" stroke-linejoin="round" stroke-opacity=".80846" stroke-width="30.237" style="paint-order:markers fill stroke"/><path d="m812.14 1313.8c-1.2369 5.3596-7.4213 24.737-7.4213 24.737h15.255s-10.719-9.8953-7.8332-24.737z" stroke-dashoffset="33" stroke-linecap="round" stroke-linejoin="round" stroke-opacity=".80846" stroke-width="30.237" style="paint-order:markers fill stroke"/><path d="m838.98 1308.9-7.8332 29.684h18.14s-13.605-14.43-10.307-29.684z" stroke-dashoffset="33" stroke-linecap="round" stroke-linejoin="round" stroke-opacity=".80846" stroke-width="30.237" style="paint-order:markers fill stroke"/><path d="m807.18 1204.9c-5.3597 3.6573-7.8332 11.637-4.5351 14.962 3.2981 3.3247 8.6577 5.6523 8.6577 5.6523s-5.9573-6.9784-3.7108-11.637c2.8862-5.9848-0.41252-8.9769-0.41252-8.9769z" stroke-dashoffset="33" stroke-linecap="round" stroke-linejoin="round" stroke-opacity=".80846" stroke-width="30.237" style="paint-order:markers fill stroke"/><path d="m857.06 1201.7c-2.4737 3.2982-1.6492 14.43 2.4737 11.132s6.1843-1.2369 6.1843-4.9474c0-3.7106-8.6577-6.1844-8.6577-6.1844z" stroke-dashoffset="33" stroke-linecap="round" stroke-linejoin="round" stroke-opacity=".80846" stroke-width="30.237" style="paint-order:markers fill stroke"/><path d="m857.65 1338.9c-3.9814 0.3617-1.1774-47.513 13.193-63.494 3.6408-4.0482-3.4608-55.621 3.2982-64.44 4.1736-5.4465 1.2369-18.14 14.018-17.728 9.1215 0.294 22.675 43.828 25.149 55.784 2.4737 11.956 8.349 33.995 2.4737 37.105-5.2819 2.7965-15.201 29.353-19.789 53.184-2.4888-2.1363-5.3596-44.938-0.82452-49.474s11.544-6.5969 10.719-9.4828c-1.7909-6.2677-15.681-55.316-16.903-54.135-5.1796 5.0036-3.2972 52.064-1.6491 48.775 3.6039-7.192-26.724 44.662-29.685 63.903z" stroke-dashoffset="33" stroke-linecap="round" stroke-linejoin="round" stroke-opacity=".80846" stroke-width="30.237" style="paint-order:markers fill stroke"/><path d="m880.35 1195.8c-5.3597 10.307-9.8946 18.552-1.6491 22.675 8.2457 4.1228 13.605 10.307 22.263 6.1843 8.6583-4.1229-4.9474-38.342-20.614-28.86z" stroke-dashoffset="33" stroke-linecap="round" stroke-linejoin="round" stroke-opacity=".80846" stroke-width="30.237" style="paint-order:markers fill stroke"/><path d="m888.98 1133.6c-10.719 9.0702-17.316 29.272-7.4213 41.228 9.8946 11.956 9.8946 11.132 16.079-0.4126 6.1843-11.544-3.2982-42.877-9.8946-37.105z" stroke-dashoffset="33" stroke-linecap="round" stroke-linejoin="round" stroke-opacity=".80846" stroke-width="30.237" style="paint-order:markers fill stroke"/><path d="m891.49 1111.7c-16.901 0.2772-14.018 12.781-9.8946 15.666 4.1228 2.8859 11.132 2.0614 11.956-1.6492 0.82445-3.7105 7.5269-14.175-2.0614-14.018z" stroke-dashoffset="33" stroke-linecap="round" stroke-linejoin="round" stroke-opacity=".80846" stroke-width="30.237" style="paint-order:markers fill stroke"/><path d="m888.57 1122.4c-5.3597 10.307-13.606 15.666-6.5962 20.614 7.0088 4.9474 12.369 13.606 11.132 0.4125-1.2369-13.193-4.5351-21.026-4.5351-21.026z" stroke-dashoffset="33" stroke-linecap="round" stroke-linejoin="round" stroke-opacity=".80846" stroke-width="30.237" style="paint-order:markers fill stroke"/><path d="m878.3 1159.1c0.41252 10.307 1.6492 25.974 1.6492 40.404s4.1228 30.509 8.6577 14.43c4.5351-16.079 2.886-32.158 8.6577-37.518 5.772-5.3597-18.965-17.316-18.965-17.316z" stroke-dashoffset="33" stroke-linecap="round" stroke-linejoin="round" stroke-opacity=".80846" stroke-width="30.237" style="paint-order:markers fill stroke"/><path d="m887.35 1144.3c-4.5351-2.4737-31.333 21.851-25.974 27.211 5.3596 5.3597 31.333-20.202 25.974-27.211z" stroke-dashoffset="33" stroke-linecap="round" stroke-linejoin="round" stroke-opacity=".80846" stroke-width="30.237" style="paint-order:markers fill stroke"/><path d="m858.87 1171.5s15.666 40.404 17.316 39.167c1.6495-1.237 7.0088-2.0614 6.1843-5.7719-0.82457-3.7106-16.079-29.684-16.491-33.807-0.41252-4.1228-7.0088 0.4126-7.0088 0.4126z" stroke-dashoffset="33" stroke-linecap="round" stroke-linejoin="round" stroke-opacity=".80846" stroke-width="30.237" style="paint-order:markers fill stroke"/><path d="m891.49 1139.4c-1.6492 5.7719 16.491 34.219 21.439 32.158 4.9473-2.0614-14.018-35.456-21.439-32.158z" stroke-dashoffset="33" stroke-linecap="round" stroke-linejoin="round" stroke-opacity=".80846" stroke-width="30.237" style="paint-order:markers fill stroke"/><path d="m900.53 1129c-1.2368 4.5351 5.772 42.877 10.307 42.465 4.5351-0.4125-2.886-43.702-10.307-42.465z" stroke-dashoffset="33" stroke-linecap="round" stroke-linejoin="round" stroke-opacity=".80846" stroke-width="30.237" style="paint-order:markers fill stroke"/><path d="m901.76 1130.3c-2.0614-4.5351 2.4737-6.1843-2.4737-13.606-4.9474-7.4213-15.293-10.199-12.369-2.8859 2.9165 7.2929 14.75 16.532 14.842 16.492z" stroke-dashoffset="33" stroke-linecap="round" stroke-linejoin="round" stroke-opacity=".80846" stroke-width="30.237" style="paint-order:markers fill stroke"/><path d="m880.35 1206.9c-1.6491 2.8859 3.2982 16.079 8.2457 14.842 4.9474-1.2369-2.4737-19.789-8.2457-14.842z" stroke-dashoffset="33" stroke-linecap="round" stroke-linejoin="round" stroke-opacity=".80846" stroke-width="30.237" style="paint-order:markers fill stroke"/><path d="m864.24 1312.5c-3.2982 4.1228-12.369 26.798-12.369 26.798l23.088-0.4125s-22.263-1.6492-10.719-26.386z" stroke-dashoffset="33" stroke-linecap="round" stroke-linejoin="round" stroke-opacity=".80846" stroke-width="30.237" style="paint-order:markers fill stroke"/><path d="m897.27 1310.4c-4.5351 8.6577-7.0088 13.606-9.0702 14.842-2.0614 1.2369 4.5351 13.193 7.8332 14.43 3.2983 1.2368 8.6577 0.4125 10.307 0 1.6495-0.4126-10.719-6.5969-9.4827-11.132 1.2369-4.5351 0.41252-18.14 0.41252-18.14z" stroke-dashoffset="33" stroke-linecap="round" stroke-linejoin="round" stroke-opacity=".80846" stroke-width="30.237" style="paint-order:markers fill stroke"/><path d="m1045.6 1123.5c-10.199 5.9048-12.346 20.398-4.2944 20.398 8.0521 0 19.324-23.619 4.2944-20.398z" stroke-dashoffset="33" stroke-linecap="round" stroke-linejoin="round" stroke-opacity=".80846" stroke-width="30.237" style="paint-order:markers fill stroke"/><path d="m1050.4 1148.7c-10.978 0.918-11.855-8.2621-14.844 5.9666-2.9888 14.229-10.863 43.628 0.9688 62.444 11.832 18.819 23.972 29.811 30.994-5.0723 7.0216-34.883-1.8382-80.322-17.119-63.343z" stroke-dashoffset="33" stroke-linecap="round" stroke-linejoin="round" stroke-opacity=".80846" stroke-width="30.237" style="paint-order:markers fill stroke"/><path d="m1045.1 1210.5c-14.426 4.481-24.857 53.823-22.482 71.686 2.2769 17.122 10.516 51.274 11.195 55.017 0.6788 3.7423 6.7882 3.2077 6.7882 3.2077s-1.4203-12.776 1.9738-22.4c3.3941-9.6234-2.4205-27.43-3.2376-40.548-0.6-9.6333 5.4133-33.743 8.7125-32.376 3.8692 1.6024 3.8104 45.806 2.792 55.429-1.0182 9.6233 4.5509 26.515 3.5326 31.861-1.0183 5.3463 5.7458 14.441 8.1214-0.528 0.8657-5.4547 0.7427-12.24 1.669-20.35 1.6157-14.146 2.6206-31.249 3.5088-53.424 1.3752-19.221 0.7322-54.816-22.574-47.577z" stroke-dashoffset="33" stroke-linecap="round" stroke-linejoin="round" stroke-opacity=".80846" stroke-width="30.237" style="paint-order:markers fill stroke"/><path d="m1041.4 1147.7c-10.736 6.9784-25.766 22.545-25.229 28.987 0.5368 6.4416 0.5368 13.42 5.368 12.346 4.8311-1.0736 27.376-35.428 19.861-41.333z" stroke-dashoffset="33" stroke-linecap="round" stroke-linejoin="round" stroke-opacity=".80846" stroke-width="30.237" style="paint-order:markers fill stroke"/><path d="m1008.6 1150.4c-4.8311 4.2943 1.0736 39.186 9.1256 35.965 8.0521-3.2208-6.9784-37.039-9.1256-35.965z" stroke-dashoffset="33" stroke-linecap="round" stroke-linejoin="round" stroke-opacity=".80846" stroke-width="30.237" style="paint-order:markers fill stroke"/><path d="m1001.2 1135c-1.6103 6.9784-3.8377 12.735 3.1406 14.345 6.9784 1.6104 0.617-12.735-3.1406-14.345z" stroke-dashoffset="33" stroke-linecap="round" stroke-linejoin="round" stroke-opacity=".80846" stroke-width="30.237" style="paint-order:markers fill stroke"/><path d="m1061.2 1148.2c-8.5888 9.6624 3.2208 42.944 10.199 39.723 6.9785-3.2208 5.3679-45.091-10.199-39.723z" stroke-dashoffset="33" stroke-linecap="round" stroke-linejoin="round" stroke-opacity=".80846" stroke-width="30.237" style="paint-order:markers fill stroke"/><path d="m1072.5 1178.9c-4.2944 6.4416-17.714 41.87-14.494 45.091 3.2208 3.2209 22.008-32.208 22.008-35.965s-7.5152-9.1256-7.5152-9.1256z" stroke-dashoffset="33" stroke-linecap="round" stroke-linejoin="round" stroke-opacity=".80846" stroke-width="30.237" style="paint-order:markers fill stroke"/><path d="m1060.2 1222.3c0 6.9784 1.6104 17.714 4.8312 17.178s5.3679-18.251-4.8312-17.178z" stroke-dashoffset="33" stroke-linecap="round" stroke-linejoin="round" stroke-opacity=".80846" stroke-width="30.237" style="paint-order:markers fill stroke"/><path d="m1036 1313.6c-2.1472 8.0521 2.684 12.883-6.9784 19.861-9.6625 6.9784-7.4488 0.8387-6.8915 4.7066l0.3273 2.2717 19.735 0.1622c4.4263 0.035-6.1924-27.002-6.1924-27.002z" stroke-dashoffset="33" stroke-linecap="round" stroke-linejoin="round" stroke-opacity=".80846" stroke-width="30.237" style="paint-order:markers fill stroke"/><path d="m1057.5 1314.6c0.3303 7.8793-2.7129 17.514-3.917 22.472-0.4971 2.0456-0.6924 3.2946-0.2404 3.2946h11.037c0.09 0-0.5747-1.6549-1.2508-4.143-1.7194-6.3255-3.9917-18.035-5.6286-21.623z" stroke-dashoffset="33" stroke-linecap="round" stroke-linejoin="round" stroke-opacity=".80846" stroke-width="30.237" style="paint-order:markers fill stroke"/><path d="m1046.2 1128.4c-1.6103 9.6624-11.273 23.619 1.0736 27.376 12.346 3.7575 22.008 1.0736 18.251-5.9048-3.757-6.9785-10.736-23.082-19.325-21.472z" stroke-dashoffset="33" stroke-linecap="round" stroke-linejoin="round" stroke-opacity=".80846" stroke-width="30.237" style="paint-order:markers fill stroke"/><path d="m1050 1187.4c-9.6624 6.4416-6.9784 24.692-6.9784 32.208 0 7.5152-10.736 20.398-12.883 26.303-2.1472 5.9048-5.9048 16.104 0.5368 9.1256s39.723-65.49 19.324-67.637z" stroke-dashoffset="33" stroke-linecap="round" stroke-linejoin="round" stroke-opacity=".80846" stroke-width="30.237" style="paint-order:markers fill stroke"/><path d="m1028.5 1116.5s17.714 19.861 19.861 19.324c2.1471-0.5368 9.6624-11.81 4.2943-13.957-5.3679-2.1472-11.273 0-13.42 0.5368-2.1471 0.5368-10.736-5.9049-10.736-5.9049z" stroke-dashoffset="33" stroke-linecap="round" stroke-linejoin="round" stroke-opacity=".80846" stroke-width="30.237" style="paint-order:markers fill stroke"/><path d="m1112.4 1316.4c-2.0837 4.6777-2.9319 30.927-0.7146 22.351 2.2174-8.5766 21.71-3.3083 23.39 0 1.8682 3.6791-24.041-12.928-22.676-22.351z" stroke-width="1.2599" style="paint-order:markers fill stroke"/><path d="m1151.6 1312.5c-2.865 6.2373-1.5882 29.628-1.1086 26.249s1.1868-17.932 6.165-14.554c4.9781 3.3784 14.219 12.211 14.107 14.554-0.083 1.7391-16.902-24.868-19.163-26.249z" stroke-width="1.2599" style="paint-order:markers fill stroke"/><path d="m1204.1 1316.1c-3.6258 2.1758-26.83 16.882-24.655 19.783 2.1753 2.9009 32.631 3.6259 36.257 0 3.6258-3.6254-11.602-19.783-11.602-19.783z" stroke-width="1.2599" style="paint-order:markers fill stroke"/><path d="m1249.1 1311c-8.9469 4.3724-17.403 24.904-17.403 24.904 7.1684 3.3288 27.319-11.25 30.456-15.477 0 0-7.2513-14.503-13.052-9.427z" stroke-width="1.2599" style="paint-order:markers fill stroke"/><path d="m1115.1 1332.9c-1.8663-4.6542-12.199-46.289-6.8779-59.683 3.0223-7.6077 10.358-4.7831 12.355-10.73 3.3085-9.8483-0.6266-24.639-2.1843-31.979-2.4983-11.772 10.554-13.962 20.413-17.248 9.8588-3.2853 39.545 63.518 39.175 69.542-0.3708 6.023 5.3838 9.2817-7.8212 18.891-13.207 9.6107-19.408 30.391-18.874 29.842 1.2791-1.3156-4.258-32.306 4.1431-37.782 8.4011-5.4754 8.7592-13.134 1.2487-17.248-5.7285-3.1385-12.007-10.826-15.141-8.7607-6.9019 4.5488-10.601 12.007-13.928 11.772-7.232-0.5114-14.799 52.136-12.508 53.388z" stroke-width="1.2599" style="paint-order:markers fill stroke"/><path d="m1116.9 1156c-4.3413 6.8448-3.411 35.825 8.8456 37.484 10.55 1.4276 26.727-11.208 28.428-22.232 1.5474-10.032-30.876-24.56-37.273-15.252z" stroke-width="1.2599" style="paint-order:markers fill stroke"/><path d="m1121.1 1133.6c-12.003-1.7616 2.6446 19.241 8.5602 18.617 9.9519-1.0503-2.0589-17.663-8.5602-18.617z" stroke-width="1.2599" style="paint-order:markers fill stroke"/><path d="m1124.8 1220.1c0.3615 3.8331 28.899 30.663 29.968 10.678 1.0688-19.986-31.12-67.348-28.515-51.471 2.1031 12.816-3.4887 19.211-1.4537 40.793z" stroke-width="1.2599" style="paint-order:markers fill stroke"/><path d="m1139.8 1203.1c-17.708 3.833-31.876 27.378-11.673 38.603s23.183 13.355 28.244 0.2711c4.0255-10.404-8.4459-42.709-16.571-38.876z" stroke-width="1.2599" style="paint-order:markers fill stroke"/><path d="m1118.8 1157.9c-3.9846-0.52-15.92 24.69-11.939 28.329 3.9816 3.6381 17.177-24.95 11.939-28.329z" stroke-width="1.2599" style="paint-order:markers fill stroke"/><path d="m1135 1161.7c1.4792-6.7573 34.558 7.7969 33.602 11.435-0.9565 3.6383-32.049-5.1976-33.602-11.435z" stroke-width="1.2599" style="paint-order:markers fill stroke"/><path d="m1107.3 1189c-3.7706 2.3388-4.1081 37.944-0.384 38.464 3.7246 0.5196 5.1462-36.385 0.384-38.464z" stroke-width="1.2599" style="paint-order:markers fill stroke"/><path d="m1167.1 1173.1c-2.8513-7.7969 19.09-32.227 21.078-28.068s-15.408 32.487-21.078 28.068z" stroke-width="1.2599" style="paint-order:markers fill stroke"/><path d="m1126.5 1142c4.0962-14.341-32.675-29.368-30.877-7.537 1.7983 21.831 26.533 22.744 30.877 7.537z" stroke-width="1.2599" style="paint-order:markers fill stroke"/><path d="m1106.3 1223.6c-4.2459 1.0395-2.348 9.3563 3.9339 8.0565 6.2823-1.2998 1.0917-9.0961-3.9339-8.0565z" stroke-width="1.2599" style="paint-order:markers fill stroke"/><path d="m1111.6 1228.8c2.9434 2.0791 0.6829 10.395 0.6829 10.395s-4.0722 0.5196-3.2894-2.5991c0.7826-3.1185 2.6064-7.7968 2.6064-7.7968z" stroke-width="1.2599" style="paint-order:markers fill stroke"/><path d="m1187.2 1147.7c-2.4206-5.1977-7.3335-14.973-2.0657-14.034 13.122 2.3389 4.1508 7.7969 2.0657 14.034z" stroke-width="1.2599" style="paint-order:markers fill stroke"/><path d="m1176.9 1132.4c0.5894-6.1115 14.499-4.9543 13.81-0.2505-0.3886 2.6518 3.946 7.8428-2.5685 5.4426-7.1613-2.639-1.1035-6.7521-4.0054-7.0119-2.9018-0.2608-7.2356 1.8188-7.2356 1.8188z" stroke-width="1.2599" style="paint-order:markers fill stroke"/><path d="m1178.6 1133.2c0.9919 4.418 3.3281 7.5371 5.4072 7.5371s-5.4072-7.5371-5.4072-7.5371z" stroke-width="1.2599" style="paint-order:markers fill stroke"/><path d="m1110.7 1293c-8.7013-5.458-2.312-28.068 5.0911-24.17 7.4031 3.8983 4.4343 28.328-5.0911 24.17z" stroke-width="1.2599" style="paint-order:markers fill stroke"/><path d="m1168.4 1289.6c-4.5014-3.6387-20.618-0.5201-16.252 8.5765 4.3661 9.0962 20.793-1.5595 16.252-8.5765z" stroke-width="1.2599" style="paint-order:markers fill stroke"/><path d="m1132 1213.9c-8.1043 4.418-15.964 24.43-2.0202 28.588 13.943 4.1583 15.76-38.204 2.0202-28.588z" stroke-width="1.2599" style="paint-order:markers fill stroke"/><path d="m1122.6 1170.1c-4.3781 3.3785-8.0334 20.532 3.0976 21.831 11.131 1.2993 18.006-30.927-3.0976-21.831z" stroke-width="1.2599" style="paint-order:markers fill stroke"/><path d="m1138.2 1162.3c-3.297 5.1976 1.06 23.65 9.9885 17.932 8.9285-5.7177 4.0961-25.47-9.9885-17.932z" stroke-width="1.2599" style="paint-order:markers fill stroke"/><path d="m1118.5 1131.3c-6.0238 2.8589-8.0746 18.712 1.7166 16.633 9.7911-2.0791 7.3411-21.571-1.7166-16.633z" stroke-width="1.2599" style="paint-order:markers fill stroke"/><path d="m1113.6 1332c-5.8497 2.3389-6.5479 7.5371-1.2193 6.7573 5.3288-0.7798 7.0661-5.9775 1.2193-6.7573z" stroke-width="1.2599" style="paint-order:markers fill stroke"/><path d="m1153.3 1324.2c-5.2857 1.0396-5.7265 9.3564-1.307 7.7968s9.0174-8.3163 1.307-7.7968z" stroke-width="1.2599" style="paint-order:markers fill stroke"/><path d="m1324.3 1142.7c0-2.7316-15.477 27.767-1.8208 18.208 13.657-9.5595 12.291-23.671 1.8208-18.208z" stroke-width="1.2599" style="paint-order:markers fill stroke"/><path d="m1325.2 1156.3c16.843-2.7314 24.582 19.574 27.767 30.043 3.1854 10.47 11.38 33.685 5.9176 40.969-5.4625 7.2829-32.775 12.746-36.872-0.4552-4.0967-13.201-12.746-75.565 3.1865-70.558z" stroke-width="1.2599" style="paint-order:markers fill stroke"/><path d="m1343.3 1211.9c11.836 10.47 12.746 44.611-6.828 60.999s13.657 54.625 13.657 54.625-38.237-27.313-39.148-37.781c-0.9108-10.47 2.7313-22.305 2.7313-22.305s-25.036 17.753-25.947 25.947c-0.9108 8.1937 2.2761 35.052 2.2761 35.052s-19.575-35.506-17.297-45.976c2.2771-10.47 39.148-41.424 39.148-41.424s13.201-41.879 31.41-29.134z" stroke-width="1.2599" style="paint-order:markers fill stroke"/><path d="m1328.6 1150.8c10.128 1.6537 11.924 25.625 4.5666 25.117-7.3574-0.5062-19.305-27.523-4.5666-25.117z" stroke-width="1.2599" style="paint-order:markers fill stroke"/><path d="m1339.7 1171.3c7.2834-3.1866 25.036 16.388 19.119 23.216-5.9167 6.8273-25.947-15.933-19.119-23.216z" stroke-width="1.2599" style="paint-order:markers fill stroke"/><path d="m1356.5 1189.6c3.1865 4.5525-34.141 31.865-37.328 22.305-3.1867-9.5594 31.865-26.402 37.328-22.305z" stroke-width="1.2599" style="paint-order:markers fill stroke"/><path d="m1313.7 1181.3c-7.7386 20.484-13.201 27.313-6.8282 30.499 6.373 3.1866 16.842-18.664 6.8282-30.499z" stroke-width="1.2599" style="paint-order:markers fill stroke"/><path d="m1311.9 1223.7c5.9177-3.6417 11.38-10.47 7.7386-15.022-3.6417-4.5525-6.8283-4.5525-11.38-4.0968-4.5521 0.4551-7.2833 14.566 3.6417 19.119z" stroke-width="1.2599" style="paint-order:markers fill stroke"/><path d="m1349.7 1317.4c4.5522 6.8284 10.015 18.208-0.9109 20.029-10.925 1.8208-15.932 1.8208-17.753 0-1.8204-1.8209 20.94-5.9178 18.664-20.029z" stroke-width="1.2599" style="paint-order:markers fill stroke"/><path d="m1296 1316.5c4.0969 7.2829 7.7385 19.119 1.8208 20.939-5.9177 1.8209-19.575 5.4626-25.036 0-5.4614-5.4621 25.947 2.2764 23.216-20.939z" stroke-width="1.2599" style="paint-order:markers fill stroke"/><path d="m1337.5 1220.5c19.575 12.29 26.402 37.327 8.1938 32.32-18.208-5.0075-38.237-45.976-8.1938-32.32z" stroke-width="1.2599" style="paint-order:markers fill stroke"/><path d="m1255.2 1160.4c-6.2383 4.3029 0.5686 22.947 7.1709 22.23 4.3362-0.4705 3.5855-22.947-7.1709-22.23z" stroke-width="1.2599" style="paint-order:markers fill stroke"/><path d="m1259.3 1185.1c-4.6143 3.8003-4.6143 12.486-2.9856 13.843 1.6286 1.3575 5.6998-3.5283 7.3284-6.7855 1.6285-3.2571 3.5286-11.4-4.3429-7.0569z" stroke-width="1.2599" style="paint-order:markers fill stroke"/><path d="m1205.7 1328.9c-0.5479-2.2043-8.5567-53.598-8.5158-62.388 0.057-11.356 19.86-65.175 36.928-66.474 18.498-1.4051 22.08 32.443 21.301 64.965-0.1426 5.7449 2.0523 15.671 1.7009 21.131-1.4535 22.582-6.3499 39.246-6.3499 39.246 0.041 0-7.0538-19.738-8.8374-35.201-0.9515-8.2467-2.4915-13.409-2.8825-15.345-3.6878-18.254-4.2824-34.189-10.884-34.541-7.7396-0.4142-22.46 88.604-22.46 88.604z" stroke-width="1.2599" style="paint-order:markers fill stroke"/><path d="m1237.1 1135.3c-11.912 1.0313-33.951 14.439-31.569 40.223 2.3826 25.784 11.317 54.662 17.273 55.695 5.9566 1.0314 29.187-11.345 29.187-25.784s1.7869-83.542-14.891-70.135z" stroke-width="1.2599" style="paint-order:markers fill stroke"/><path d="m1231.7 1123.2c-10.152 6.5262-13.053 18.128-3.6258 16.678 9.427-1.4502 16.678-18.853 3.6258-16.678z" stroke-width="1.2599" style="paint-order:markers fill stroke"/><path d="m1202.7 1189.8c-18.129 9.427-19.619 21.494-15.285 22.991 6.1238 2.1155 27.875-13.738 15.285-22.991z" stroke-width="1.2599" style="paint-order:markers fill stroke"/><path d="m1233.9 1132.3c-8.1282 1.3555-19.418 33.417-8.1282 32.965 11.289-0.4499 31.159-40.642 8.1282-32.965z" stroke-width="1.2599" style="paint-order:markers fill stroke"/><path d="m1174.4 1205.4c-11.302 1.6619-10.275 6.2046-10.018 5.9403 1.4096-1.4477 6.0419-3.1238 8.5761-1.824 0.7376 0.3784 5.9934 9.4981 9.4745 5.9668 3.4073-3.4567-6.3589-11.923-8.0325-10.082z" stroke-width="1.2599" style="paint-order:markers fill stroke"/><path d="m1248.4 1139.2c-5.4891 7.9594-4.666 28.271 5.2152 29.368 9.881 1.0989 3.568-34.858-5.2152-29.368z" stroke-width="1.2599" style="paint-order:markers fill stroke"/><path d="m1171.9 1211.9c-0.7247 1.3939 4.8616 4.2435 6.3534 2.4524 1.244-1.4941-4.7805-3.1401-6.3534-2.4524z" stroke-width="1.2599" style="paint-order:markers fill stroke"/></g><g transform="translate(.00029147)" stroke-dashoffset="33" stroke-linecap="round" stroke-linejoin="round" stroke-opacity=".80846" stroke-width="24" inkscape:label="hrushoby" sodipodi:insensitive="true"><path d="m400.76 1342.6c-1.3456 7.202 5.3827 176.44 5.3827 176.44l477.71 8.4022-9.4196-182.45z" fill="#7b7b7b" opacity=".53205" style="paint-order:markers fill stroke"/><path d="m406.4 1333.8c-1.3457 7.202-9.0293 193.32-9.0293 193.32l473.56 5.8384 7.8048-195.37z" fill="#a7a7a7" fill-opacity=".1989" opacity=".53205" style="paint-order:markers fill stroke"/><path d="m406.92 1346.8c-1.3456 7.2019 12.766 190.69 12.766 190.69l458.24-7.3076-5.1946-182.54z" fill="#a7a7a7" fill-opacity=".1989" opacity=".53205" style="paint-order:markers fill stroke"/><path d="m782.1 1350-0.30173 16.274 22.691-0.5581-1.4167-15.484zm46.095 0.1558-0.44939 14.851 9.6537-0.2266 0.0599-14.624zm-213.78 0.059-0.30176 16.274 22.691-0.558-1.4167-15.484zm-167.89 0.017-0.30174 16.274 22.691-0.558-1.4167-15.484zm413.31 0.078 1.1032 14.782 7.7779-0.3199 0.49648-14.177zm-199.33 0.059-0.44939 14.851 9.6537-0.2267 0.0599-14.624zm-167.89 0.017-0.44939 14.851 9.6537-0.2266 0.0599-14.624zm199.55 0.1371 1.1032 14.782 7.7779-0.3199 0.49648-14.177zm-167.89 0.017 1.1032 14.782 7.7779-0.3199 0.49648-14.177zm223.77 0.1066 0.81536 15.369 9.2405-0.1185 0.97583-15.009zm-167.68 0.2143 0.81534 15.368 9.2405-0.1184 0.97585-15.009zm-167.89 0.017 0.81534 15.369 9.2405-0.1185 0.97585-15.009zm320.32 0.1422-9.599 0.4121-3.1993 21.463 1.5996 24.352-1.2797 91.549 9.598 0.8251zm-167.89 0.017-9.599 0.4121-3.1993 21.463 1.5996 24.352-1.2797 91.549 9.598 0.8251zm217.25 36.428-0.30174 16.274 22.691-0.5581-1.4167-15.484zm46.095 0.154-0.4494 14.851 9.6525-0.2266 0.0599-14.624zm-213.78 0.059-0.30174 16.274 22.691-0.558-1.4167-15.484zm-167.89 0.017-0.30174 16.274 22.691-0.558-1.4167-15.484zm413.31 0.078 1.1032 14.782 7.7779-0.3209 0.49756-14.176zm-199.33 0.059-0.44941 14.851 9.6525-0.2268 0.0599-14.624zm-167.89 0.017-0.4494 14.851 9.6525-0.2266 0.0599-14.624zm199.55 0.1387 1.1032 14.782 7.7779-0.3211 0.49756-14.176zm-167.89 0.017 1.1032 14.782 7.7779-0.3209 0.49756-14.176zm223.77 0.1066 0.81426 15.369 9.2405-0.1202 0.97585-15.008zm-167.68 0.2143 0.81428 15.368 9.2405-0.1201 0.97586-15.008zm-167.89 0.017 0.81428 15.369 9.2405-0.1202 0.97585-15.008zm369.51 36.533-0.30176 16.274 22.691-0.558-1.4167-15.484zm46.095 0.154-0.44941 14.851 9.6537-0.2267 0.0589-14.624zm-213.78 0.061-0.30175 16.274 22.691-0.558-1.4167-15.484zm-167.89 0.017-0.30174 16.274 22.691-0.558-1.4167-15.484zm413.31 0.078 1.1032 14.782 7.7779-0.3209 0.49648-14.176zm-199.33 0.059-0.44941 14.851 9.6537-0.2266 0.0587-14.624zm-167.89 0.017-0.4494 14.851 9.6537-0.2266 0.0589-14.624zm199.55 0.1388 1.1032 14.782 7.7779-0.3211 0.49648-14.176zm-167.89 0.017 1.1032 14.781 7.7779-0.3209 0.49648-14.176zm223.77 0.1066 0.81535 15.369 9.2395-0.1202 0.97585-15.008zm-167.68 0.2143 0.81535 15.369 9.2395-0.1202 0.97585-15.008zm-167.89 0.017 0.81535 15.369 9.2395-0.1202 0.97585-15.008zm369.47 36.544-0.30174 16.274 22.691-0.558-1.4167-15.484zm46.095 0.1557-0.44834 14.851 9.6525-0.2266 0.0599-14.624zm-213.78 0.059-0.30174 16.274 22.691-0.558-1.4167-15.484zm-167.89 0.017-0.30174 16.274 22.691-0.5581-1.4167-15.484zm413.31 0.08 1.1032 14.781 7.7779-0.3198 0.49648-14.177zm-199.33 0.059-0.44833 14.851 9.6525-0.2266 0.0599-14.624zm-167.89 0.017-0.44833 14.851 9.6525-0.2266 0.0599-14.624zm199.55 0.1371 1.1032 14.781 7.7779-0.3199 0.49647-14.177zm-167.89 0.017 1.1032 14.781 7.7779-0.3199 0.49647-14.177zm223.77 0.1066 0.81534 15.369 9.2405-0.1185 0.97585-15.009zm-167.68 0.2143 0.81534 15.369 9.2405-0.1185 0.97585-15.009zm-167.89 0.017 0.81534 15.369 9.2405-0.1185 0.97585-15.009zm370.1 36.558-0.30174 16.274 22.691-0.558-1.4167-15.484zm46.095 0.1557-0.44941 14.851 9.6537-0.2268 0.0599-14.624zm-213.78 0.059-0.30175 16.274 22.691-0.5581-1.4167-15.484zm-167.89 0.017-0.30174 16.274 22.691-0.5581-1.4167-15.483zm413.31 0.078 1.1032 14.782 7.7779-0.3198 0.49648-14.177zm-199.33 0.059-0.4494 14.851 9.6537-0.2268 0.0599-14.624zm-167.89 0.017-0.4494 14.851 9.6537-0.2268 0.0599-14.624zm199.55 0.1371 1.1032 14.782 7.7779-0.3199 0.49648-14.177zm-167.89 0.017 1.1032 14.782 7.7779-0.3199 0.49648-14.177zm223.77 0.1066 0.81535 15.369 9.2405-0.1185 0.97584-15.009zm-167.68 0.2145 0.81535 15.368 9.2405-0.1185 0.97583-15.009zm-167.89 0.017 0.81535 15.369 9.2405-0.1185 0.97584-15.009z" fill="#5e5e5e" opacity=".53205" style="paint-order:markers fill stroke"/><path d="m288.09 1544.9c-56.188-48.82-97.325-117.17-35.117-124 62.208-6.8349 94.315-41.986 109.37-4.8821 15.05 37.104 18.06 160.13-74.248 128.89z" fill="url(#radialGradient1472)" opacity=".57243" style="paint-order:markers fill stroke"/><path d="m410.5 1527.4c-65.218-49.797-93.312-64.443-60.201-92.759s19.064-41.986 71.238-45.891c52.174-3.9058 99.332 16.599 100.33 39.056 1.0034 22.457-57.191 130.84-111.37 99.594z" fill="url(#radialGradient1473)" opacity=".57243" style="paint-order:markers fill stroke"/><path d="m850.97 1492.2c5.0167-50.773-6.0201-80.065 39.131-68.349 45.151 11.717 73.245 7.8112 80.268 29.293 7.0235 21.481 35.117 20.504 17.057 40.033-18.06 19.528-109.37 59.561-136.46-0.9766z" fill="url(#radialGradient1474)" opacity=".59296" style="paint-order:markers fill stroke"/><path d="m595.11 1494.8c-1.3456 7.202 5.3827 176.44 5.3827 176.44l477.71 8.4022-9.4197-182.45z" fill="#7b7b7b" style="paint-order:markers fill stroke"/><path d="m600.75 1486c-1.3457 7.202-9.0293 193.32-9.0293 193.32l473.56 5.8384 7.8048-195.37z" fill="#a7a7a7" fill-opacity=".1989" style="paint-order:markers fill stroke"/><path d="m601.27 1499c-1.3456 7.2019 12.766 190.69 12.766 190.69l458.24-7.3076-5.1946-182.54z" fill="#a7a7a7" fill-opacity=".1989" style="paint-order:markers fill stroke"/><path d="m976.45 1502.2-0.30173 16.274 22.691-0.5581-1.4167-15.484zm46.095 0.1557-0.4494 14.851 9.6537-0.2266 0.06-14.624zm-213.78 0.059-0.30176 16.274 22.691-0.558-1.4167-15.484zm-167.89 0.017-0.30174 16.274 22.691-0.558-1.4167-15.484zm413.31 0.078 1.1032 14.782 7.7779-0.3199 0.4964-14.177zm-199.33 0.059-0.44939 14.851 9.6537-0.2267 0.0599-14.624zm-167.89 0.017-0.44939 14.851 9.6537-0.2266 0.0599-14.624zm199.55 0.1371 1.1032 14.782 7.7779-0.3199 0.49648-14.177zm-167.89 0.017 1.1032 14.782 7.7779-0.3199 0.49648-14.177zm223.77 0.1066 0.81536 15.369 9.2405-0.1185 0.97583-15.009zm-167.68 0.2143 0.81534 15.368 9.2405-0.1184 0.97585-15.009zm-167.89 0.017 0.81534 15.369 9.2405-0.1185 0.97585-15.009zm320.32 0.1422-9.599 0.4121-3.1993 21.463 1.5996 24.352-1.2797 91.549 9.598 0.8251zm-167.89 0.017-9.599 0.4121-3.1993 21.463 1.5996 24.352-1.2797 91.549 9.598 0.8251zm217.25 36.428-0.30174 16.274 22.691-0.5581-1.4167-15.484zm46.095 0.154-0.4494 14.851 9.6525-0.2266 0.06-14.624zm-213.78 0.059-0.30174 16.274 22.691-0.558-1.4167-15.484zm-167.89 0.017-0.30174 16.274 22.691-0.558-1.4167-15.484zm413.31 0.078 1.1031 14.782 7.7779-0.3209 0.4976-14.176zm-199.33 0.059-0.4494 14.851 9.6525-0.2268 0.0599-14.624zm-167.89 0.017-0.4494 14.851 9.6525-0.2266 0.0599-14.624zm199.55 0.1387 1.1032 14.782 7.7779-0.3211 0.49756-14.176zm-167.89 0.017 1.1032 14.782 7.7779-0.3209 0.49756-14.176zm223.77 0.1066 0.81426 15.369 9.2405-0.1202 0.97585-15.008zm-167.68 0.2143 0.81428 15.368 9.2405-0.1201 0.97586-15.008zm-167.89 0.017 0.81428 15.369 9.2405-0.1202 0.97585-15.008zm369.51 36.533-0.30176 16.274 22.691-0.558-1.4167-15.484zm46.095 0.154-0.4494 14.851 9.6537-0.2267 0.059-14.624zm-213.78 0.061-0.30175 16.274 22.691-0.558-1.4167-15.484zm-167.89 0.017-0.30174 16.274 22.691-0.558-1.4167-15.484zm413.31 0.078 1.1032 14.782 7.7778-0.3209 0.4965-14.176zm-199.33 0.059-0.44941 14.851 9.6537-0.2266 0.0587-14.624zm-167.89 0.017-0.4494 14.851 9.6537-0.2266 0.0589-14.624zm199.55 0.1388 1.1032 14.782 7.7779-0.3211 0.49648-14.176zm-167.89 0.017 1.1032 14.781 7.7779-0.3209 0.49648-14.176zm223.77 0.1066 0.81535 15.369 9.2395-0.1202 0.97585-15.008zm-167.68 0.2143 0.81535 15.369 9.2395-0.1202 0.97585-15.008zm-167.89 0.017 0.81535 15.369 9.2395-0.1202 0.97585-15.008zm369.47 36.544-0.30174 16.274 22.691-0.558-1.4167-15.484zm46.095 0.1557-0.4484 14.851 9.6525-0.2266 0.06-14.624zm-213.78 0.059-0.30174 16.274 22.691-0.558-1.4167-15.484zm-167.89 0.017-0.30174 16.274 22.691-0.5581-1.4167-15.484zm413.31 0.079 1.1031 14.781 7.7779-0.3198 0.4965-14.177zm-199.33 0.059-0.44833 14.851 9.6525-0.2266 0.0599-14.624zm-167.89 0.017-0.44833 14.851 9.6525-0.2266 0.0599-14.624zm199.55 0.1371 1.1032 14.781 7.7779-0.3199 0.49647-14.177zm-167.89 0.017 1.1032 14.781 7.7779-0.3199 0.49647-14.177zm223.77 0.1066 0.81534 15.369 9.2405-0.1185 0.97585-15.009zm-167.68 0.2143 0.81535 15.369 9.2405-0.1185 0.97585-15.009zm-167.89 0.017 0.81534 15.369 9.2405-0.1185 0.97585-15.009zm370.1 36.558-0.30174 16.274 22.691-0.558-1.4167-15.484zm46.095 0.1557-0.4494 14.851 9.6536-0.2268 0.06-14.624zm-213.78 0.059-0.30175 16.274 22.691-0.5581-1.4167-15.484zm-167.89 0.017-0.30174 16.274 22.691-0.5581-1.4167-15.483zm413.31 0.078 1.1032 14.782 7.7778-0.3198 0.4965-14.177zm-199.33 0.059-0.4494 14.851 9.6537-0.2268 0.0599-14.624zm-167.89 0.017-0.4494 14.851 9.6537-0.2268 0.0599-14.624zm199.55 0.1371 1.1032 14.782 7.7779-0.3199 0.49648-14.177zm-167.89 0.017 1.1032 14.782 7.7779-0.3199 0.49648-14.177zm223.77 0.1066 0.81535 15.369 9.2405-0.1185 0.97584-15.009zm-167.68 0.2145 0.81535 15.368 9.2405-0.1185 0.97583-15.009zm-167.89 0.017 0.81535 15.369 9.2405-0.1185 0.97584-15.009z" fill="#5e5e5e" style="paint-order:markers fill stroke"/><path d="m65.991 1485.8c-1.3457 7.202 5.3827 176.44 5.3827 176.44l477.71 8.4022-9.4196-182.45z" fill="#7b7b7b" style="paint-order:markers fill stroke"/><path d="m71.627 1477c-1.3457 7.202-9.0293 193.32-9.0293 193.32l473.56 5.8384 7.8048-195.37z" fill="#a7a7a7" fill-opacity=".1989" style="paint-order:markers fill stroke"/><path d="m72.144 1490c-1.3457 7.2019 12.766 190.69 12.766 190.69l458.24-7.3076-5.1946-182.54z" fill="#a7a7a7" fill-opacity=".1989" style="paint-order:markers fill stroke"/><path d="m447.33 1493.2-0.30174 16.274 22.691-0.5581-1.4167-15.484zm46.095 0.1557-0.44939 14.851 9.6537-0.2266 0.0599-14.624zm-213.78 0.059-0.30176 16.274 22.691-0.558-1.4167-15.484zm-167.89 0.017-0.30174 16.274 22.691-0.558-1.4167-15.484zm413.31 0.078 1.1032 14.782 7.7779-0.3199 0.49648-14.177zm-199.33 0.059-0.44939 14.851 9.6537-0.2267 0.0599-14.624zm-167.89 0.017-0.44939 14.851 9.6537-0.2266 0.0599-14.624zm199.55 0.1371 1.1032 14.782 7.7779-0.3199 0.49648-14.177zm-167.89 0.017 1.1032 14.782 7.7779-0.3199 0.49648-14.177zm223.77 0.1066 0.81536 15.369 9.2405-0.1185 0.97583-15.009zm-167.68 0.2143 0.81534 15.368 9.2405-0.1184 0.97585-15.009zm-167.89 0.017 0.81534 15.369 9.2405-0.1185 0.97584-15.009zm320.32 0.1422-9.599 0.4121-3.1993 21.463 1.5996 24.352-1.2797 91.549 9.598 0.8251zm-167.89 0.017-9.599 0.4121-3.1993 21.463 1.5996 24.352-1.2797 91.549 9.598 0.8251zm217.25 36.428-0.30174 16.274 22.691-0.5581-1.4167-15.484zm46.095 0.154-0.44939 14.851 9.6525-0.2266 0.0599-14.624zm-213.78 0.059-0.30174 16.274 22.691-0.558-1.4167-15.484zm-167.89 0.017-0.30174 16.274 22.691-0.558-1.4167-15.484zm413.31 0.078 1.1032 14.782 7.7779-0.3209 0.49757-14.176zm-199.33 0.059-0.44941 14.851 9.6525-0.2268 0.0599-14.624zm-167.89 0.017-0.44939 14.851 9.6525-0.2266 0.0599-14.624zm199.55 0.1387 1.1032 14.782 7.7779-0.3211 0.49756-14.176zm-167.89 0.017 1.1032 14.782 7.7779-0.3209 0.49756-14.176zm223.77 0.1066 0.81426 15.369 9.2405-0.1202 0.97585-15.008zm-167.68 0.2143 0.81428 15.368 9.2405-0.1201 0.97586-15.008zm-167.89 0.017 0.81428 15.369 9.2405-0.1202 0.97584-15.008zm369.51 36.533-0.30176 16.274 22.691-0.558-1.4167-15.484zm46.095 0.154-0.44941 14.851 9.6537-0.2267 0.0589-14.624zm-213.78 0.061-0.30175 16.274 22.691-0.558-1.4167-15.484zm-167.89 0.017-0.30174 16.274 22.691-0.558-1.4167-15.484zm413.31 0.078 1.1032 14.782 7.7779-0.3209 0.49647-14.176zm-199.33 0.059-0.44941 14.851 9.6537-0.2266 0.0587-14.624zm-167.89 0.017-0.4494 14.851 9.6537-0.2266 0.0589-14.624zm199.55 0.1388 1.1032 14.782 7.7779-0.3211 0.49648-14.176zm-167.89 0.017 1.1032 14.781 7.7779-0.3209 0.49648-14.176zm223.77 0.1066 0.81535 15.369 9.2395-0.1202 0.97585-15.008zm-167.68 0.2143 0.81535 15.369 9.2395-0.1202 0.97585-15.008zm-167.89 0.017 0.81534 15.369 9.2395-0.1202 0.97584-15.008zm369.47 36.544-0.30174 16.274 22.691-0.558-1.4167-15.484zm46.095 0.1557-0.44834 14.851 9.6525-0.2266 0.0599-14.624zm-213.78 0.059-0.30174 16.274 22.691-0.558-1.4167-15.484zm-167.89 0.017-0.30174 16.274 22.691-0.5581-1.4167-15.484zm413.31 0.079 1.1032 14.781 7.7779-0.3198 0.49648-14.177zm-199.33 0.059-0.44833 14.851 9.6525-0.2266 0.0599-14.624zm-167.89 0.017-0.44833 14.851 9.6525-0.2266 0.0599-14.624zm199.55 0.1371 1.1032 14.781 7.7779-0.3199 0.49648-14.177zm-167.89 0.017 1.1032 14.781 7.7779-0.3199 0.49648-14.177zm223.77 0.1066 0.81535 15.369 9.2405-0.1185 0.97585-15.009zm-167.68 0.2143 0.81535 15.369 9.2405-0.1185 0.97585-15.009zm-167.89 0.017 0.81534 15.369 9.2405-0.1185 0.97584-15.009zm370.1 36.558-0.30174 16.274 22.691-0.558-1.4167-15.484zm46.095 0.1557-0.44941 14.851 9.6537-0.2268 0.0599-14.624zm-213.78 0.059-0.30175 16.274 22.691-0.5581-1.4167-15.484zm-167.89 0.017-0.30174 16.274 22.691-0.5581-1.4167-15.483zm413.31 0.078 1.1032 14.782 7.7779-0.3198 0.49648-14.177zm-199.33 0.059-0.4494 14.851 9.6537-0.2268 0.0599-14.624zm-167.89 0.017-0.4494 14.851 9.6537-0.2268 0.0599-14.624zm199.55 0.1371 1.1032 14.782 7.7779-0.3199 0.49648-14.177zm-167.89 0.017 1.1032 14.782 7.7779-0.3199 0.49648-14.177zm223.77 0.1066 0.81535 15.369 9.2405-0.1185 0.97584-15.009zm-167.68 0.2145 0.81535 15.368 9.2405-0.1185 0.97583-15.009zm-167.89 0.017 0.81534 15.369 9.2405-0.1185 0.97584-15.009z" fill="#5e5e5e" style="paint-order:markers fill stroke"/><path d="m61.699 1685.2c-71.238-201.67-96.322-280.94 10.034-261.87 106.36 19.064 22.074 166.56-10.034 261.87z" fill="url(#radialGradient1487)" style="paint-order:markers fill stroke"/><path d="m165.99 1685.2c-90.867-257.24-122.86-358.35 12.798-334.03 135.66 24.316 28.156 212.45-12.798 334.03z" fill="url(#radialGradient1466)" style="paint-order:markers fill stroke"/><path d="m1040.5 1685.2c-45.259-128.13-61.195-178.48 6.3743-166.37 67.569 12.111 14.024 105.82-6.3743 166.37z" fill="url(#radialGradient1467)" style="paint-order:markers fill stroke"/><path d="m946.75 1685.2c-45.259-116.66-61.195-162.51 6.3744-151.48 67.569 11.027 14.024 96.343-6.3744 151.48z" fill="url(#radialGradient1468)" style="paint-order:markers fill stroke"/><path d="m832.45 1685.2c-45.259-137.3-61.195-191.27 6.3744-178.29 67.569 12.979 14.024 113.39-6.3744 178.29z" fill="url(#radialGradient1469)" style="paint-order:markers fill stroke"/></g><g transform="translate(0,-54)" fill="#002036" inkscape:groupmode="layer" inkscape:label="text_" sodipodi:insensitive="true"><path d="m256.77 176.17c35.804 0 64.885 29.081 64.885 64.885s-29.081 64.885-64.885 64.885c-35.96 0-64.885-29.081-64.885-64.885s28.924-64.885 64.885-64.885zm0 16.26c-26.892 0-48.624 21.732-48.624 48.624s21.732 48.624 48.624 48.624 48.624-21.732 48.624-48.624-21.732-48.624-48.624-48.624zm0 16.104c17.98 0 32.52 14.54 32.52 32.52s-14.54 32.52-32.52 32.52-32.52-14.54-32.52-32.52 14.54-32.52 32.52-32.52zm0 16.26c-8.9118 0-16.26 7.3483-16.26 16.26s7.3484 16.26 16.26 16.26c8.9119 0 16.26-7.3483 16.26-16.26s-7.3484-16.26-16.26-16.26zm141.58-48.624c35.804 0 64.885 29.081 64.885 64.885s-29.081 64.885-64.885 64.885c-35.96 0-64.885-29.081-64.885-64.885s28.924-64.885 64.885-64.885zm0 48.624c-8.2865 0-15.009 6.0976-16.104 14.071-0.15635 0.7818-0.15635 1.4072-0.15635 2.1889 0 8.1301 6.0976 15.009 14.071 16.104 0.78174 0.1563 1.4071 0.1563 2.1889 0.1563 8.9119 0 16.26-7.3483 16.26-16.26s-7.3484-16.26-16.26-16.26zm0 8.1301c4.3778 0 7.9738 3.7523 7.9738 8.1301s-3.596 8.1301-7.9738 8.1301c-4.5341 0-8.1301-3.7523-8.1301-8.1301s3.596-8.1301 8.1301-8.1301zm141.58-56.754c35.804 0 64.885 29.081 64.885 64.885s-29.081 64.885-64.885 64.885c-35.96 0-64.885-29.081-64.885-64.885s28.924-64.885 64.885-64.885zm0 48.624c-8.9119 0-16.26 7.3483-16.26 16.26s7.3484 16.26 16.26 16.26c8.9118 0 16.26-7.3483 16.26-16.26s-7.3484-16.26-16.26-16.26zm76.694-48.624h129.77v44.559h-129.77v-34.397zm0 56.754h129.77v16.26h-129.77zm0 28.455h129.77v44.559h-129.77v-16.26zm214.28-85.21h28.924v27.986h27.83l0.46905 28.768h-27.83l-0.3127 16.26h28.143l-0.46905 28.299h-27.83v28.455l-28.924-0.3127v-28.143l-16.104-0.3127v28.455l-28.299 0.3127v-28.455h-28.455l0.31269-28.299h28.299l0.3127-16.26h-28.612l-0.15634-28.768h28.299v-27.674l28.299-0.3127v27.674l16.104 0.3127zm-15.635 56.598-0.3127 16.104 16.26 0.3127 0.31269-16.26z" opacity=".385" style="font-variant-ligatures:none"/><path d="m256.77 316.88c35.804 0 64.885 29.081 64.885 64.885s-29.081 64.885-64.885 64.885c-35.96 0-64.885-29.081-64.885-64.885s28.924-64.885 64.885-64.885zm0 16.26c-26.892 0-48.624 21.732-48.624 48.624s21.732 48.624 48.624 48.624 48.624-21.732 48.624-48.624-21.732-48.624-48.624-48.624zm0 16.104c17.98 0 32.52 14.54 32.52 32.52s-14.54 32.52-32.52 32.52-32.52-14.54-32.52-32.52 14.54-32.52 32.52-32.52zm0 16.26c-8.9118 0-16.26 7.3483-16.26 16.26s7.3484 16.26 16.26 16.26c8.9119 0 16.26-7.3483 16.26-16.26s-7.3484-16.26-16.26-16.26zm0 8.1301c4.3778 0 7.9738 3.7523 7.9738 8.1301s-3.596 8.1301-7.9738 8.1301c-4.5341 0-8.1301-3.7523-8.1301-8.1301s3.596-8.1301 8.1301-8.1301zm76.694-56.754h44.559v44.559h-44.559zm56.754 0h16.104v56.754h56.911v16.26h-56.911v56.754h-16.104v-56.754h-56.754v-16.26h56.754v-12.195zm28.455 0h44.559v44.559h-44.559zm-85.21 85.21h44.559v44.559h-44.559zm85.21 0h44.559v44.559h-44.559zm67.782-85.21h106.94l-53.471 53.471zm-11.413 11.414 53.471 53.471-53.471 53.471zm129.77 0v106.94l-53.471-53.471zm-64.885 64.884 53.471 53.471h-106.94zm76.694-76.298h129.77v44.559h-129.77v-34.397zm0 56.754h129.77v16.26h-129.77zm0 28.455h129.77v44.559h-129.77v-16.26zm141.58-85.21h56.754v56.754h-56.754zm72.858 0h56.911v56.754h-56.911zm-72.858 73.015h56.754v56.754h-56.754zm72.858 0h56.911v56.754h-56.911z" opacity=".385" style="font-variant-ligatures:none"/></g></svg>
